<?xml version="1.0" encoding="UTF-8" standalone="no"?>
<svg
   version="1.1"
   width="1025.049"
   height="1025.5203"
   id="svg4"
   xmlns="http://www.w3.org/2000/svg"
   xmlns:svg="http://www.w3.org/2000/svg">
  <defs
     id="defs4" />
  <path
     d="m 149.57402,0.62977702 c 1.57963,-0.005677 1.57963,-0.005677 3.19117,-0.0114686 1.75259,0.001368 1.75259,0.001368 3.5406,0.002763 1.23746,-0.002951 2.47492,-0.005903 3.74988,-0.008944 3.46142,-0.007213 6.9228,-0.009899 10.38422,-0.010723 3.75608,-0.001964 7.51215,-0.009637 11.26822,-0.0165726 7.46229,-0.0128418 14.92457,-0.0202062 22.38686,-0.0258988 8.93428,-0.007048 17.86855,-0.0198065 26.80282,-0.0325492 22.63194,-0.0318918 45.26389,-0.0516976 67.89584,-0.0692855 6.13184,-0.004767 12.26368,-0.009776 18.39552,-0.0148052 38.06746,-0.0310559 76.13493,-0.0576731 114.2024,-0.0744188 8.82476,-0.003937 17.64953,-0.007949 26.4743,-0.0120249 1.64455,-7.5251e-4 1.64455,-7.5251e-4 3.32233,-0.00152 35.50926,-0.0164009 71.01844,-0.0548299 106.52766,-0.1057669 36.51046,-0.0522776 73.02088,-0.0850111 109.53138,-0.0922656 5.16263,-0.001029 10.32527,-0.002265 15.48791,-0.00362 1.01602,-2.5804e-4 2.03204,-5.1607e-4 3.07884,-7.8193e-4 16.32101,-0.004687 32.64192,-0.0295878 48.96289,-0.0619695 16.42694,-0.0321149 32.85377,-0.041976 49.28073,-0.0295681 9.74631,0.006712 19.49226,-0.003058 29.23851,-0.037127 6.52843,-0.0211441 13.05663,-0.0200542 19.58508,-0.001667 3.7084,0.009835 7.41614,0.0107641 11.12448,-0.0156628 18.0088,-0.12055271 34.32552,1.58810691 51.62948,6.75497791 1.29844,0.3812221 1.29844,0.3812221 2.62312,0.7701456 17.31985,5.1264359 33.66297,12.7174329 48.37688,23.2298539 0.54898,0.388169 1.09796,0.776338 1.66357,1.17627 31.81882,22.828361 53.47599,55.453016 62.72009,93.389782 0.4267,1.68511 0.8847,3.3625 1.3673,5.03246 2.1148,7.61478 2.6742,14.61477 2.6266,22.49231 0.01,1.90422 0.01,1.90422 0.013,3.84691 0.012,3.50458 0,7.00892 -0.01,10.5135 -0.01,3.82 0,7.63997 0.01,11.45997 0.011,6.68881 0.011,13.37755 0,20.06637 -0.011,9.94664 -0.01,19.89321 0,29.83985 0.016,17.76614 0.014,35.53224 0.01,53.29838 -0.01,15.54811 -0.01,31.0962 -0.01,46.64431 2e-4,1.0315 4e-4,2.063 7e-4,3.12576 9e-4,4.18726 0,8.37452 0,12.56179 0.01,39.27764 8e-4,78.55526 -0.015,117.8329 -0.014,34.89079 -0.013,69.78154 10e-4,104.67232 0.016,39.20448 0.022,78.40895 0.013,117.61343 -10e-4,4.17993 0,8.35985 0,12.53977 -4e-4,1.5438 -4e-4,1.5438 -8e-4,3.11878 0,15.5371 6e-4,31.07418 0.01,46.61128 0.01,17.6684 0.01,35.33677 -0.01,53.00517 -0.01,9.88652 -0.01,19.77296 0,29.65948 0.01,6.60625 0,13.21243 -0.011,19.81867 -0.01,3.76236 -0.01,7.52456 10e-4,11.28691 0.012,4.05912 -2e-4,8.11785 -0.014,12.17697 0.011,1.73889 0.011,1.73889 0.021,3.51291 -0.054,7.91482 -1.344,15.07181 -3.3988,22.70375 -0.2369,0.90242 -0.4738,1.80485 -0.7179,2.73461 -7.8828,29.6084 -22.26947,54.20217 -43.28206,76.26539 -0.99774,1.07701 -0.99774,1.07701 -2.01563,2.17578 -22.1674,23.23854 -53.9296,37.73164 -85.17578,43.28124 -2.74806,0.4005 -2.74806,0.4005 -4.80859,1.543 -1.65903,0.096 -3.32194,0.129 -4.98377,0.1311 -1.06312,0 -2.12624,0.01 -3.22157,0.012 -1.76944,0 -1.76944,0 -3.57463,0 -1.24928,0 -2.49856,0.01 -3.7857,0.01 -3.49456,0.01 -6.9891,0.01 -10.48366,0.011 -3.79201,0 -7.58401,0.01 -11.37601,0.016 -7.53371,0.013 -15.0674,0.02 -22.60111,0.026 -9.01976,0.01 -18.03951,0.02 -27.05926,0.033 -22.84839,0.032 -45.69678,0.052 -68.54518,0.069 -6.19042,0 -12.38085,0.01 -18.57127,0.015 -38.43077,0.031 -76.86154,0.058 -115.29231,0.074 -8.90899,0 -17.81798,0.01 -26.72697,0.012 -1.66025,8e-4 -1.66025,8e-4 -3.35404,0 -35.84877,0.016 -71.69747,0.055 -107.5462,0.1057 -36.85919,0.052 -73.71833,0.085 -110.57756,0.092 -5.21182,10e-4 -10.42365,0 -15.63548,0 -1.53855,4e-4 -1.53855,4e-4 -3.10819,8e-4 -16.47721,0 -32.95434,0.03 -49.43152,0.062 -16.58377,0.032 -33.16743,0.042 -49.75122,0.029 -9.83961,-0.01 -19.67888,0 -29.51845,0.037 -6.59063,0.021 -13.18104,0.02 -19.77168,0 -3.74393,-0.01 -7.4872,-0.011 -11.23106,0.016 -38.38358,0.2543 -75.525347,-10.5179 -105.85316,-34.75502 -0.577983,-0.45987 -1.155967,-0.91974 -1.751465,-1.39355 C 28.430834,962.42992 8.5614038,924.79627 1.9893038,882.53141 c -0.29182,-1.86976 -0.29182,-1.86976 -1.35375998,-3.77393 -0.096,-1.63588 -0.12822,-3.27568 -0.12996,-4.91438 -0.005,-1.57141 -0.005,-1.57141 -0.0107,-3.17457 0.001,-1.16227 0.002,-2.32453 0.004,-3.52202 -0.003,-1.23101 -0.005,-2.46201 -0.008,-3.73032 -0.006,-3.44332 -0.008,-6.88659 -0.008,-10.32991 -0.001,-3.73643 -0.008,-7.47286 -0.0139,-11.20928 -0.0111,-7.42321 -0.0167,-14.84641 -0.0207,-22.26962 -0.005,-8.88746 -0.0157,-17.77491 -0.0265,-26.66236 -0.0257,-21.49139 -0.0407,-42.98278 -0.0535,-64.47418 -0.004,-7.1209 -0.009,-14.2418 -0.0136,-21.3627 -0.0253,-37.86476 -0.0473,-75.72951 -0.0597,-113.59427 -0.003,-8.77768 -0.006,-17.55537 -0.009,-26.33305 -3.7e-4,-1.09052 -7.4e-4,-2.18104 -0.001,-3.30461 -0.0121,-35.32222 -0.0431,-70.6444 -0.0848,-105.96661 -0.0428,-36.31705 -0.0694,-72.63408 -0.0746,-108.95117 -7.4e-4,-5.13485 -0.002,-10.26969 -0.003,-15.40454 -1.9e-4,-1.01056 -3.8e-4,-2.02111 -5.8e-4,-3.06229 -0.004,-16.23564 -0.0238,-32.47123 -0.0502,-48.70685 -0.0262,-16.33953 -0.0338,-32.67899 -0.0229,-49.01855 0.006,-9.69537 -0.002,-19.39049 -0.0298,-29.08583 -0.0174,-6.49321 -0.0162,-12.98626 -6.4e-4,-19.47948 0.008,-3.68905 0.009,-7.37763 -0.0126,-11.06664 -0.0969,-17.40921 1.17997998,-33.50836 5.63009998,-50.37677 0.18174,-0.69003 0.36348,-1.38005 0.55073,-2.09099 0.92693,-3.45425 1.96605,-6.84215 3.13677,-10.22151 0.33467,-0.98017 0.66934,-1.96034 1.0141602,-2.97021 C 24.612504,67.234853 56.866258,34.439125 94.94846,16.00748 109.07451,9.4063128 123.68469,5.4815317 138.95155,2.5225982 c 9.14419,-1.89089909 9.14419,-1.89089909 10.62247,-1.89282118 z"
     fill="#203465"
     id="path1" />
  <path
     d="m 462.63514,215.76088 c 0.94875,0.67418 1.8975,1.34836 2.875,2.04297 14.81622,10.81663 31.65203,23.74086 42.125,38.95703 3.30202,-0.58701 4.98897,-1.59793 7.39063,-3.91406 0.62318,-0.59289 1.24636,-1.18578 1.88843,-1.79663 0.65041,-0.63173 1.30082,-1.26345 1.97094,-1.91431 1.34946,-1.286 2.69971,-2.57117 4.05078,-3.85547 0.64276,-0.61408 1.28552,-1.22815 1.94776,-1.86084 3.15977,-2.9924 6.45032,-5.82497 9.75146,-8.65869 1.39646,-1.22846 2.79228,-2.45764 4.1875,-3.6875 8.38303,-7.3125 8.38303,-7.3125 10.8125,-7.3125 0,-0.66 0,-1.32 0,-2 2.04925,-1.58661 4.08524,-3.02182 6.25,-4.4375 0.66677,-0.43812 1.33354,-0.87624 2.02051,-1.32764 14.47423,-9.34835 29.62157,-17.12496 45.72949,-23.23486 0.72864,-0.27683 1.45729,-0.55365 2.20801,-0.83887 9.0804,-3.38017 18.27125,-5.8824 27.72949,-7.97363 0.93489,-0.20714 1.86979,-0.41427 2.83301,-0.62769 11.64709,-2.44762 23.23665,-2.79984 35.10449,-2.80981 0.72699,-6.8e-4 1.45398,-10e-4 2.203,-0.002 12.19283,0.0179 23.95853,0.80688 35.922,3.25204 1.2653,0.24944 1.2653,0.24944 2.55615,0.50391 38.35136,7.74336 72.24919,25.58297 100.44385,52.49605 0.85336,0.80051 1.70672,1.60102 2.58594,2.42578 19.22298,18.52562 32.87581,41.86566 42.78906,66.44922 0.62552,1.5505 0.62552,1.5505 1.26367,3.13232 4.78072,12.16823 7.13708,23.94778 8.72388,36.86866 0.3211,2.59289 0.66301,5.18245 1.00659,7.77246 2.00487,15.66292 2.44055,31.14859 0.50586,46.85156 -0.13124,1.0833 -0.26249,2.16659 -0.39771,3.28271 -3.69462,28.386 -11.90285,55.53141 -24.47729,81.21729 -0.72075,1.48621 -0.72075,1.48621 -1.45605,3.00244 -1.53329,3.13627 -3.09523,6.25641 -4.66895,9.37256 -0.47856,0.96946 -0.95713,1.93891 -1.4502,2.93774 -3.40862,6.59825 -6.97042,12.13226 -14.23339,14.66773 -5.95685,0.46911 -9.72816,0.0196 -14.60157,-3.57813 -4.08082,-3.59955 -5.71729,-7.18094 -6.09375,-12.58984 0.0821,-7.19686 3.44184,-13.29868 6.51462,-19.6377 1.42814,-2.95298 2.8065,-5.92832 4.18859,-8.90307 1.00635,-2.16426 2.01854,-4.3257 3.03215,-6.48657 20.06046,-42.86375 26.40295,-95.58209 10.76855,-140.78516 -0.22027,-0.63744 -0.44054,-1.27488 -0.66748,-1.93164 -6.86565,-19.36542 -18.05585,-36.76436 -32.10205,-51.68164 -1.82303,-1.95074 -3.50399,-3.92817 -5.16797,-6.01172 -4.07617,-4.79549 -9.12174,-8.51848 -14.0625,-12.375 -0.92941,-0.74508 -1.85883,-1.49016 -2.81641,-2.25781 -23.42299,-18.29224 -51.92741,-27.95847 -81.18359,-31.74219 -1.092,-0.14139 -1.092,-0.14139 -2.20605,-0.28565 -41.40563,-4.99476 -86.02058,9.53952 -118.7627,34.84424 -12.71278,10.23904 -24.36383,21.05919 -35.03125,33.44141 -14.00503,16.13853 -14.00503,16.13853 -21.46875,17.42578 -5.81427,0.30648 -9.76138,-1.03682 -14.53125,-4.42578 -1.96189,-1.88644 -3.73255,-3.70459 -5.5,-5.75 -0.87656,-0.98484 -1.75312,-1.96969 -2.65625,-2.98438 -1.48425,-1.69699 -2.95969,-3.4008 -4.42749,-5.11206 -29.5213,-34.20249 -69.81219,-63.08974 -116.21069,-67.01294 -50.01434,-3.18887 -90.11272,9.24666 -129.20557,39.85938 -1.4502,1.12342 -1.4502,1.12342 -2.92969,2.26953 -3.44737,2.88148 -6.17934,6.30518 -9.07031,9.73047 -1.14855,1.31678 -1.14855,1.31678 -2.32031,2.66016 -10.5845,12.32646 -18.97069,25.54252 -25.67969,40.33984 -0.42539,0.93562 -0.42539,0.93562 -0.85937,1.89014 -4.04641,9.06863 -6.76154,18.19885 -8.70264,27.91943 -0.28675,1.43404 -0.58483,2.86587 -0.89551,4.29492 -4.63834,21.58556 -4.26296,45.36065 0.45752,66.89551 0.16629,0.81517 0.33258,1.63034 0.50391,2.47021 4.30759,21.01547 11.55117,52.57466 26.49609,68.52979 2.5483,0.59146 2.5483,0.59146 5.48589,0.48102 1.14003,0.005 2.28007,0.011 3.45465,0.0167 1.25156,-0.0144 2.50312,-0.0288 3.79261,-0.0436 1.31717,5.9e-4 2.63434,0.001 3.99143,0.002 3.61356,0.001 7.22659,-0.0224 10.84003,-0.0503 3.77562,-0.025 7.55125,-0.0274 11.32695,-0.0321 7.1505,-0.0124 14.30075,-0.0453 21.45115,-0.0854 8.14014,-0.0447 16.2803,-0.0667 24.42054,-0.0868 16.74573,-0.0418 33.49121,-0.11219 50.23675,-0.20129 2.2081,-4.86976 4.3567,-9.71259 6.11206,-14.76782 0.36591,-1.04746 0.73182,-2.09491 1.10881,-3.17411 0.5771,-1.67036 0.5771,-1.67036 1.16585,-3.37448 0.41434,-1.18882 0.82867,-2.37765 1.25557,-3.6025 0.8892,-2.55243 1.77707,-5.10526 2.66265,-7.65894 2.11345,-6.09385 4.23877,-12.18357 6.36267,-18.27378 0.72073,-2.06706 1.441,-4.13428 2.16122,-6.20152 5.02907,-14.4301 10.12984,-28.8346 15.25101,-43.23225 3.26868,-9.19484 6.51127,-18.39694 9.68579,-27.62476 0.88339,-2.5567 1.76734,-5.11322 2.65137,-7.6697 0.80319,-2.33351 1.59567,-4.67047 2.38769,-7.00779 6.09659,-17.77155 6.09659,-17.77155 12.94531,-21.97485 4.54965,-1.9437 8.52871,-1.68566 13.25,-0.4375 4.63915,1.95875 6.46118,4.72478 9,9 1.09507,2.78996 1.89062,5.6378 2.67969,8.52734 0.24439,0.86112 0.48878,1.72224 0.74057,2.60946 0.82866,2.93074 1.6416,5.86562 2.45474,8.8007 0.60691,2.16007 1.21469,4.31989 1.82325,6.47949 1.54593,5.49799 3.08074,10.999 4.61041,16.50153 1.35603,4.87777 2.71559,9.75455 4.07709,14.6308 3.55279,12.7261 7.10189,25.45323 10.6394,38.18359 0.3505,1.26132 0.3505,1.26132 0.70808,2.54812 0.23574,0.84834 0.47148,1.69667 0.71436,2.57072 4.81758,17.33654 9.65148,34.66844 14.50163,51.99591 0.58878,2.10381 1.17756,4.20762 1.76633,6.31143 2.29947,8.21586 4.5991,16.43166 6.90152,24.6467 5.65619,20.18197 11.30008,40.36382 16.69343,60.61793 1.15102,4.30071 2.32572,8.59492 3.502,12.88878 0.19405,0.7142 0.3881,1.42839 0.58803,2.16423 0.99987,3.61392 2.17826,7.05594 3.59947,10.52304 0.2274,-0.818 0.2274,-0.818 0.45938,-1.65253 11.59892,-41.70248 23.53071,-83.30506 35.64924,-124.85931 1.39347,-4.77835 2.78386,-9.55757 4.17263,-14.33728 1.64425,-5.65543 3.29781,-11.30803 4.96088,-16.95795 0.5803,-1.97541 1.15773,-3.95167 1.73206,-5.92883 0.77349,-2.65965 1.55812,-5.31575 2.34612,-7.97113 0.21568,-0.75041 0.43136,-1.50082 0.65357,-2.27397 2.1061,-7.00699 4.79974,-12.75884 11.02612,-17.019 3.83483,-1.91741 8.10392,-1.54621 12.12891,-0.38672 6.66358,2.87027 9.34874,7.78525 12.09771,14.28858 1.30063,3.41218 2.53512,6.84198 3.74994,10.28564 0.45566,1.27008 0.91217,2.53985 1.36948,3.80933 1.194,3.32135 2.37687,6.64655 3.55722,9.97277 1.19765,3.36923 2.40527,6.73487 3.61236,10.10071 2.12851,5.93685 4.24788,11.87689 6.36002,17.81958 1.34328,3.71566 2.73144,7.41278 4.12436,11.11011 0.93704,0.004 0.93704,0.004 1.893,0.007 15.23362,0.0593 30.46706,0.13488 45.7005,0.22847 7.36693,0.0449 14.73382,0.0843 22.10084,0.11073 6.42466,0.023 12.84918,0.0565 19.27372,0.10226 3.39854,0.0238 6.79692,0.0426 10.19554,0.0489 3.8036,0.01 7.60666,0.0377 11.41013,0.07 1.11419,-10e-4 2.22838,-0.003 3.37633,-0.004 11.83296,0.14147 20.13808,2.9062 28.74916,11.04219 5.14478,5.4326 8.83167,11.85512 12.71094,18.20703 2.34316,3.82457 4.81708,7.54247 7.33984,11.25 4.82125,7.13514 9.27957,14.47608 13.73218,21.84521 4.21303,6.96774 8.49818,13.88556 12.83032,20.77979 8.37262,13.35132 16.57757,26.80045 24.6875,40.3125 0.65484,1.08974 1.30969,2.17948 1.98437,3.30225 20.33199,33.95379 35.9345,69.06906 26.60645,109.43115 -5.81103,22.29314 -17.83843,40.62631 -33.59082,57.26652 -0.89332,0.96938 -1.78664,1.93875 -2.70703,2.9375 -20.30881,21.56969 -48.67125,33.34276 -78.1211,34.28125 -34.92863,0.70684 -63.73909,-9.99243 -89.22656,-34.27734 -17.30357,-16.98949 -29.83659,-38.17242 -34.94531,-61.94141 -0.2243,-0.93328 -0.44859,-1.86656 -0.67969,-2.82813 -9.40418,-45.08852 14.70926,-86.6249 37.67969,-123.17187 0.51498,-0.81936 1.02996,-1.63872 1.56055,-2.48291 2.97661,-4.73021 5.96393,-9.45359 8.95556,-14.17432 2.49873,-3.945 4.99099,-7.89409 7.48389,-11.84277 3.02213,-4.78598 6.04494,-9.57154 9.07031,-14.35547 0.51176,-0.80953 1.02352,-1.61906 1.55078,-2.45312 0.94759,-1.49891 1.89546,-2.99764 2.84375,-4.4961 3.26136,-5.1599 6.49968,-10.33404 9.73389,-15.51098 0.46261,-0.74034 0.92522,-1.48068 1.40184,-2.24345 1.13322,-1.81358 2.26634,-3.62722 3.39943,-5.44088 -1.23504,-0.006 -2.47009,-0.0117 -3.74255,-0.0178 -11.65283,-0.0573 -23.30546,-0.13006 -34.9581,-0.21793 -5.99039,-0.0447 -11.98072,-0.084 -17.97123,-0.11073 -5.78377,-0.0261 -11.56729,-0.0665 -17.3509,-0.11675 -2.2039,-0.0167 -4.40784,-0.0282 -6.61179,-0.0344 -3.09279,-0.01 -6.18491,-0.0377 -9.27754,-0.07 -0.90631,10e-4 -1.81262,0.003 -2.7464,0.004 -6.35289,-0.0934 -11.96442,-1.0107 -17.26605,-4.81929 -4.54576,-5.4199 -6.64119,-11.54022 -8.88794,-18.17993 -0.39381,-1.11053 -0.78762,-2.22105 -1.19336,-3.36523 -1.75546,-5.0312 -3.22422,-9.78526 -3.99414,-15.07194 -0.66,0 -1.32,0 -2,0 -0.15185,0.96289 -0.15185,0.96289 -0.30676,1.94524 -1.27548,7.57061 -3.22103,14.81612 -5.41199,22.16804 -0.56763,1.93111 -1.13525,3.86221 -1.70282,5.79333 -0.60446,2.05266 -1.21169,4.10448 -1.81976,6.15607 -1.28169,4.32461 -2.5556,8.65148 -3.82801,12.97882 -0.43669,1.48493 -0.8734,2.96986 -1.31012,4.45478 -0.32669,1.11084 -0.32669,1.11084 -0.65998,2.24413 -0.66725,2.26779 -1.33526,4.53536 -2.00347,6.80286 -3.88029,13.17063 -7.71221,26.35501 -11.53036,39.54376 -1.29909,4.48673 -2.60166,8.97243 -3.90597,13.45765 -0.54749,1.88271 -0.54749,1.88271 -1.10604,3.80345 -0.7285,2.50518 -1.45701,5.01036 -2.18551,7.51553 -2.16743,7.4604 -4.31884,14.92521 -6.45842,22.39363 -1.3641,4.75422 -2.73789,9.5056 -4.11368,14.25644 -0.63801,2.21173 -1.27167,4.42472 -1.90064,6.63904 -0.86198,3.03319 -1.73908,6.06161 -2.61975,9.08942 -0.24509,0.8772 -0.49017,1.75441 -0.74269,2.6582 -2.01633,6.83999 -4.92317,13.31766 -10.39403,18.09961 -5.80085,1.93362 -11.89817,1.99359 -17.4375,-0.625 -5.86437,-5.43527 -7.65193,-11.13282 -9.66015,-18.67969 -0.29808,-1.08391 -0.59616,-2.16782 -0.90328,-3.28457 -0.84816,-3.09281 -1.68627,-6.18815 -2.52073,-9.28467 -0.93135,-3.44596 -1.87579,-6.88833 -2.81867,-10.33115 -1.80252,-6.58837 -3.59668,-13.17899 -5.38769,-19.77051 -3.64599,-13.41448 -7.31749,-26.82197 -10.98817,-40.22971 -1.68413,-6.15185 -3.36775,-12.30384 -5.05138,-18.45583 -0.18874,-0.68964 -0.37748,-1.37929 -0.57194,-2.08983 -4.21034,-15.38458 -8.41528,-30.77063 -12.6191,-46.15699 -0.55979,-2.04884 -1.11959,-4.09768 -1.67939,-6.14652 -2.7626,-10.1109 -5.52508,-20.22184 -8.2874,-30.33281 -3.07119,-11.24145 -6.14281,-22.48278 -9.21831,-33.72305 -1.25507,-4.58715 -2.50873,-9.17469 -3.76116,-13.76256 -0.91709,-3.35784 -1.83633,-6.71509 -2.75528,-10.07242 -0.31596,-1.15916 -0.63192,-2.31832 -0.95745,-3.51261 -1.11191,-4.05579 -2.21916,-8.06896 -3.59114,-12.0455 -0.79126,-2.49658 -0.79126,-2.49658 -0.79126,-6.49658 -0.66,0 -1.32,0 -2,0 -0.21011,1.13824 -0.42023,2.27648 -0.63672,3.44922 -1.71258,7.65549 -4.54782,14.9857 -7.17578,22.36328 -0.92463,2.61156 -1.84764,5.22369 -2.77049,7.83588 -0.67482,1.90992 -1.35027,3.81962 -2.02627,5.72912 -2.73284,7.7289 -5.42572,15.47132 -8.10808,23.21784 -1.40975,4.06911 -2.82337,8.13689 -4.23681,12.20473 -1.16696,3.35952 -2.33158,6.71981 -3.49107,10.08192 -1.31419,3.81018 -2.63927,7.61649 -3.96493,11.4227 -0.38916,1.13397 -0.77831,2.26795 -1.17926,3.43629 -6.77904,19.37483 -6.77904,19.37483 -14.41059,24.25902 -6.49896,2.48953 -12.83545,2.26869 -19.72827,2.22705 -1.90348,4.4e-4 -1.90348,4.4e-4 -3.84541,8.9e-4 -3.46235,5.7e-4 -6.92455,-0.0111 -10.38686,-0.0251 -3.6248,-0.0125 -7.24961,-0.0137 -10.87444,-0.0161 -6.85633,-0.006 -13.71259,-0.0226 -20.56889,-0.0427 -7.80895,-0.0224 -15.61791,-0.0334 -23.42689,-0.0434 -16.05645,-0.0209 -32.11284,-0.056 -48.16924,-0.10065 1.59878,2.57395 3.19946,5.14668 4.80127,7.71875 0.45031,0.72542 0.90062,1.45084 1.36458,2.19824 3.03216,4.86448 6.18293,9.56032 9.70915,14.08301 1.0146,1.32661 2.02892,2.65344 3.04297,3.98047 0.76063,0.98879 0.76063,0.98879 1.53662,1.99756 2.09393,2.73964 4.14706,5.50881 6.20288,8.2771 5.2627,7.07656 10.70199,13.96389 16.34253,20.74487 1.50037,1.85386 3.00037,3.70803 4.5,5.5625 3.67328,4.49241 7.48779,8.82717 11.39453,13.11719 1.83465,2.02185 3.63316,4.0671 5.41797,6.13281 7.18688,8.2374 14.60152,16.28989 22.45703,23.89453 1.91027,1.9638 3.68145,3.97049 5.46094,6.05078 3.8238,4.40328 7.98585,8.35436 12.26953,12.30469 4.72022,4.37824 9.39773,8.77184 13.90747,13.36792 2.33287,2.29925 4.81187,4.41596 7.29175,6.55395 2.80851,2.46043 5.55542,4.98536 8.30078,7.51563 3.27842,3.01941 6.56582,6.02203 9.9375,8.9375 2.95839,2.55943 5.83084,5.19766 8.69019,7.86621 6.25746,5.83582 12.69118,11.34551 19.37231,16.69629 1.77197,1.45695 3.54279,2.91531 5.3125,4.375 18.64238,15.23379 37.92182,29.67882 57.34034,43.90283 3.17956,2.33292 6.35062,4.67725 9.52148,7.02197 2.36113,1.74274 4.72789,3.47762 7.09521,5.21192 3.2527,2.3863 6.4729,4.81024 9.67969,7.25781 1.60014,1.20199 3.2004,2.40381 4.80078,3.60547 0.72647,0.56598 1.45294,1.13196 2.20142,1.71509 3.4595,2.57276 5.51131,3.83339 9.86108,4.45288 3.42968,-0.58422 4.31895,-0.95728 6.4375,-3.60547 2.63635,-2.91385 5.1365,-4.96529 8.5,-7 5.31841,-3.25216 10.30992,-6.84449 15.3125,-10.5625 1.21466,-0.90118 1.21466,-0.90118 2.45386,-1.82056 1.66281,-1.23423 3.32532,-2.46885 4.98755,-3.70385 6.77863,-5.02562 13.59724,-9.99116 20.49609,-14.85058 1.00031,-0.7077 2.00063,-1.41539 3.03125,-2.14453 5.3296,-3.51195 9.57819,-5.06216 15.96875,-3.85547 5.29131,1.76377 9.38983,5.04875 12,10 0.94283,5.2124 0.87185,11.49188 -1.60938,16.28516 -3.13325,3.86375 -7.39598,6.51962 -11.44482,9.34277 -3.71703,2.62104 -7.35366,5.3526 -11.0083,8.05957 -1.64539,1.21154 -3.29123,2.42247 -4.9375,3.63281 -3.27346,2.40793 -6.54432,4.81929 -9.8125,7.23438 -10.04708,7.42198 -20.12864,14.7931 -30.27978,22.07226 -1.68771,1.2147 -3.36674,2.44143 -5.04444,3.66992 -5.83877,4.22417 -11.05052,7.47044 -18.5625,7.1875 -9.18408,-1.93349 -17.30034,-9.65365 -24.52905,-15.30151 -5.28755,-4.11397 -10.71216,-7.94649 -16.27173,-11.68286 -6.87882,-4.63577 -13.53384,-9.47392 -20.08813,-14.55688 -5.22129,-4.04795 -10.51571,-7.98217 -15.84937,-11.88062 -12.87683,-9.44048 -25.44043,-19.25865 -37.79443,-29.37256 -3.73022,-3.05081 -7.49361,-6.04892 -11.30298,-9.00024 -5.85506,-4.53625 -11.40385,-9.26202 -16.83618,-14.30689 -2.55591,-2.31664 -5.18343,-4.48119 -7.87891,-6.63281 -6.05386,-4.88131 -11.65923,-10.19958 -17.31641,-15.52734 -4.69775,-4.42253 -9.51203,-8.66109 -14.51953,-12.73047 -6.01721,-4.9212 -11.19235,-9.70059 -15.88672,-15.95313 -2.33846,-2.92871 -4.91529,-5.54808 -7.58984,-8.16406 -3.75431,-3.67685 -7.28721,-7.41891 -10.69531,-11.41406 -1.99657,-2.24726 -4.10232,-4.34989 -6.24219,-6.46094 -3.32769,-3.28855 -6.45336,-6.66382 -9.49609,-10.21484 -2.06061,-2.34981 -4.17836,-4.63527 -6.31153,-6.91895 -5.01658,-5.3729 -9.82403,-10.83639 -14.42675,-16.57324 -2.0245,-2.49572 -4.09829,-4.94003 -6.19654,-7.37378 -6.75265,-7.85284 -12.94773,-16.06928 -19.06909,-24.41919 -0.53416,-0.72381 -1.06831,-1.44762 -1.61865,-2.19336 -7.87618,-10.68257 -15.35588,-21.54596 -22.38135,-32.80664 -0.70093,-1.11568 -0.70093,-1.11568 -1.41602,-2.25391 -9.0477,-14.47143 -16.92895,-29.49997 -24.58398,-44.74609 -0.61899,-1.22396 -0.61899,-1.22396 -1.25049,-2.47266 -28.34896,-56.42036 -37.18298,-118.3993 -17.74951,-178.90234 6.34088,-18.93039 15.48497,-37.01636 28,-52.625 0.8134,-1.03254 1.6268,-2.06508 2.46484,-3.12891 11.45887,-14.21048 24.66716,-27.26307 39.53516,-37.87109 0.58427,-0.41798 1.16854,-0.83596 1.77051,-1.2666 25.63131,-18.12133 54.08293,-30.33337 85.22949,-34.7334 0.94927,-0.14357 0.94927,-0.14357 1.91772,-0.29004 48.77883,-6.49221 101.06025,5.66317 141.08228,34.29004 z"
     fill="#f9fafb"
     id="path2" />
  <path
     d="m 744.63514,520.76088 c 0.66,0 1.32,0 2,0 1.78553,2.54806 3.43651,5.10121 5.0625,7.75 0.5224,0.8391 1.04479,1.6782 1.58301,2.54272 5.32382,8.583 10.5529,17.22504 15.78125,25.86646 4.92393,8.13743 9.89016,16.2471 14.88574,24.34082 5.06775,8.21603 10.09998,16.45034 15.03589,24.74634 2.89321,4.85509 5.83619,9.67618 8.81958,14.47632 17.29978,27.90183 34.43069,57.46256 26.57422,91.63281 -0.24492,0.87269 -0.48984,1.74539 -0.74219,2.64453 -0.30679,1.13051 -0.61359,2.26102 -0.92968,3.42578 -4.71546,15.65857 -12.54116,28.08032 -24.07032,39.57422 -0.61617,0.67547 -1.23234,1.35094 -1.86718,2.04687 -12.40337,13.41225 -32.97942,22.03007 -51.03858,23.13013 -26.08437,0.5286 -46.46346,-3.35843 -67.09424,-20.177 -1.27617,-1.03061 -1.27617,-1.03061 -2.57812,-2.08203 -17.87159,-15.21278 -28.64772,-36.83466 -30.60645,-60.11133 -1.37943,-22.64655 6.84201,-43.18136 17.1919,-62.90674 0.91091,-1.74341 1.79867,-3.49887 2.68408,-5.25537 10.01354,-19.46704 22.13914,-37.98286 33.89795,-56.42773 1.94185,-3.05158 3.87033,-6.11152 5.79907,-9.17139 7.16881,-11.37072 14.36202,-22.72598 21.61157,-34.04541 0.44989,-0.70496 0.89977,-1.40991 1.36329,-2.13623 1.121,-1.75134 2.25326,-3.49546 3.38671,-5.23877 0.59297,-0.91523 1.18594,-1.83047 1.79688,-2.77344 0.47953,-0.61101 0.95906,-1.22203 1.45312,-1.85156 z"
     fill="#203465"
     id="path3"
     style="fill:#ff7f2a" />
  <path
     d="m 383.63514,684.76088 c 4.20783,1.44356 7.25482,3.51542 10.75,6.25 0.55438,0.43256 1.10876,0.86512 1.67994,1.31079 5.47413,4.30095 10.83272,8.74391 16.19116,13.1875 5.05301,4.18452 10.17808,8.26021 15.3601,12.2832 3.30829,2.58216 6.52872,5.23721 9.70044,7.98511 10.35792,8.97127 21.62359,16.68655 32.82422,24.5564 1.04898,0.7373 1.04898,0.7373 2.11914,1.4895 0.69674,0.4896 1.39348,0.9792 2.11133,1.48364 4.89421,3.4527 9.72294,6.98408 14.51367,10.57886 0.65678,0.49154 1.31355,0.98307 1.99023,1.4895 3.19148,2.40198 6.34166,4.84021 9.43946,7.36206 0.58233,0.46777 1.16467,0.93554 1.76465,1.41748 1.57226,1.2685 3.13091,2.55383 4.68847,3.84033 3.31895,2.04382 5.03815,2.29597 8.86719,1.76563 0.99,-0.66 1.98,-1.32 3,-2 0.99,0.33 1.98,0.66 3,1 -2.58177,3.12942 -4.064,4.83778 -8.13281,5.54297 -5.42959,-0.76234 -8.45707,-3.37878 -12.67969,-6.73047 -1.69579,-1.29926 -3.39242,-2.59741 -5.08984,-3.89453 -0.8532,-0.65952 -1.7064,-1.31903 -2.58545,-1.99854 -3.73373,-2.85272 -7.55938,-5.57017 -11.38721,-8.29443 -7.51831,-5.39462 -14.88497,-10.97452 -22.2268,-16.6062 -5.84885,-4.48005 -11.75751,-8.86621 -17.7107,-13.2063 -8.0362,-5.87463 -15.79358,-12.03625 -23.45947,-18.38428 -2.45957,-2.03284 -4.93891,-4.0412 -7.41553,-6.05322 -20.56406,-16.85325 -20.56406,-16.85325 -27.3125,-23.375 0,-0.33 0,-0.66 0,-1 z"
     fill="#284075"
     id="path4" />
</svg>
