<?xml version="1.0" encoding="UTF-8" standalone="no"?>
<svg
   version="1.1"
   id="Layer_1"
   x="0px"
   y="0px"
   width="1048576"
   viewBox="0 0 1048576 1048576"
   enable-background="new 0 0 1024 1024"
   xml:space="preserve"
   height="1048576"
   xmlns="http://www.w3.org/2000/svg"
   xmlns:svg="http://www.w3.org/2000/svg"><defs
   id="defs65" />
<path
   fill="#203465"
   opacity="1"
   stroke="none"
   d="M 1.000006,877 C 1,634.3053 1,391.6106 1.360557,148.33353 2.138885,146.72972 2.810685,145.73881 2.937589,144.68245 6.997082,110.89067 20.659336,81.294319 43.442375,56.310905 69.835304,27.368959 102.39291,9.164663 141.61217,3.719541 143.49763,3.457766 145.20805,1.935354 147,1 c 243.36136,0 486.72272,0 730.65198,0.356211 4.86364,1.211159 9.16858,2.02227 13.45355,2.927919 36.79266,7.776263 68.38293,24.586882 93.7204,52.873058 21.04987,23.499573 33.16977,50.935972 38.27017,81.792332 0.1805,1.09191 1.2491,2.03698 1.9039,3.05048 0,247.36136 0,494.72272 -0.3604,742.65772 -0.7631,1.25677 -1.4375,1.90563 -1.5286,2.62805 -1.7816,14.12872 -6.2165,27.47723 -11.8692,40.45904 -10.8975,25.02649 -27.34172,45.92713 -48.67399,62.69818 -22.05463,17.33881 -47.18323,28.23421 -75.03223,32.58651 -1.25061,0.1954 -2.36023,1.2931 -3.53558,1.9705 -246.36139,0 -492.72275,0 -739.65859,-0.3557 -1.75738,-0.8023 -2.90536,-1.4652 -4.12849,-1.6626 -15.19549,-2.4523 -29.85492,-6.7548 -43.760848,-13.3156 C 70.235268,997.29706 48.595684,979.52936 31.835253,955.62396 15.904726,932.90204 6.538753,907.90228 2.924518,880.54742 2.759956,879.30194 1.662801,878.17969 1.000006,877 M 600.88159,761.88428 c 0,0 -0.074,-0.0327 0.52161,-0.0443 0.51324,-0.26233 1.02655,-0.52472 2.2406,-1.01093 4.17602,-4.96295 4.04681,-15.55871 -0.84387,-20.10638 -8.17633,-7.60279 -16.31177,-11.45587 -27.6734,-3.37586 -16.34864,11.62665 -32.48481,23.55268 -48.64777,35.43781 -1.06811,0.7854 -1.59558,2.30584 -2.61871,4.03247 -0.60034,0.43127 -1.20075,0.86255 -2.2663,0.87897 -1.46332,0.55108 -3.34589,0.70581 -4.31165,1.72723 -2.93609,3.10529 -5.28372,2.75568 -8.52233,0.19476 -9.61432,-7.60241 -19.40543,-14.9909 -29.30356,-22.22198 -9.4885,-6.93158 -19.51578,-13.1565 -28.74207,-20.40967 -18.22439,-14.32715 -36.0256,-29.19159 -54.08252,-43.73364 -3.6882,-2.97034 -7.73105,-5.50025 -12.24304,-8.17304 -0.20788,0.0407 -0.41577,0.0814 -0.50324,0.0667 0,0 -0.0802,0.10547 -0.0158,-0.64868 -0.95615,-1.66504 -1.64124,-3.58905 -2.92917,-4.93707 -2.16901,-2.27008 -4.81143,-4.07904 -7.09549,-6.24957 -9.25198,-8.79206 -18.45837,-17.63233 -27.65262,-26.48487 -8.7287,-8.40435 -17.74429,-16.54144 -26.04974,-25.34692 -10.92865,-11.58661 -21.54166,-23.49652 -31.8111,-35.67169 -8.65991,-10.26685 -16.70535,-21.05725 -24.89203,-31.71631 -6.27383,-8.16852 -12.37837,-16.4682 -18.47858,-24.76813 -1.41398,-1.92383 -2.50387,-4.08594 -4.45819,-7.32324 3.18836,0 5.09775,0 7.00716,0 38.65025,0 77.30052,0.002 115.95079,-0.002 9.06393,-8.5e-4 17.974,-6.07525 21.22397,-14.61697 3.12775,-8.2204 6.24429,-16.44919 9.13663,-24.75409 6.80127,-19.52917 13.45819,-39.10852 20.19018,-58.6618 2.11631,-6.14682 4.28562,-12.27539 6.4307,-18.41233 0.5075,0.0231 1.01501,0.0462 1.52252,0.0693 0.97845,3.56543 1.83429,7.1702 2.96188,10.6878 2.09747,6.54297 4.61304,12.96265 6.45911,19.57203 1.4205,5.08587 1.68622,10.49868 3.15707,15.5653 3.92667,13.52631 8.5152,26.86377 12.29776,40.42768 3.93842,14.12268 7.14749,28.44717 10.86518,42.63369 1.71414,6.54108 4.03826,12.92151 5.7872,19.45465 1.23693,4.62067 1.72476,9.44306 2.98092,14.05725 3.03498,11.1482 6.29834,22.23462 9.52146,33.33088 1.64691,5.66998 3.57565,11.26287 5.07312,16.97033 2.18515,8.32874 3.84182,16.8017 6.19586,25.07898 2.39807,8.43207 5.30325,16.72327 8.10571,25.03595 2.52072,7.47711 7.33469,12.38953 15.49256,13.56299 9.34625,1.34448 16.29101,-2.51709 19.82043,-10.77667 3.81592,-8.93018 6.50525,-18.37049 9.2793,-27.70905 2.68322,-9.0329 4.6596,-18.2749 7.30517,-27.32013 1.92328,-6.57538 4.66797,-12.90936 6.62268,-19.47705 3.008,-10.10675 5.5672,-20.34607 8.47455,-30.48395 3.09973,-10.80871 6.55695,-21.51696 9.53925,-32.35674 3.29803,-11.98731 6.31274,-24.05515 9.24853,-36.13706 0.46955,-1.9324 -0.1192,-4.12198 -0.25769,-6.79614 0.0973,-0.17652 0.19458,-0.35303 0.79669,-0.12107 0.78034,-0.60809 1.56061,-1.21618 3.00623,-1.5942 2.4873,5.70486 4.47089,11.7063 7.60541,17.03012 3.05328,5.18594 7.23901,9.71503 11.0509,14.43286 0.52051,0.64422 1.74609,0.96796 2.66162,1.0022 4.8028,0.17993 9.61072,0.29034 14.41699,0.29492 26.16529,0.025 52.33051,0.002 78.49579,0.0336 1.88233,0.002 3.76435,0.31293 6.69074,0.57293 -5.50476,8.48682 -10.3584,16.12134 -15.36988,23.65082 -4.48522,6.73889 -9.40466,13.2002 -13.67419,20.06885 -9.7843,15.74054 -19.44153,31.56513 -28.83887,47.53888 -4.33722,7.37237 -8.16925,15.06879 -11.80401,22.81818 -2.45355,5.23114 -4.56842,10.69885 -6.11231,16.26129 -2.57757,9.28686 -4.6759,18.71209 -6.77295,28.12433 -0.89111,4.00006 -1.30816,8.10901 -1.86596,12.17871 -0.33332,2.43255 -1.09015,4.98883 -0.66614,7.30841 1.14337,6.25537 3.49396,12.34479 4.13385,18.62555 1.16192,11.40436 6.09363,21.38171 11.18817,31.15069 11.41235,21.88336 27.86969,39.3949 49.65185,51.11591 11.35663,6.11114 23.28986,12.00616 35.68531,15.14459 22.52264,5.70258 44.96606,2.1911 66.54889,-5.98169 14.57873,-5.52038 27.53216,-13.76776 39.45538,-23.92529 15.539,-13.23792 26.81824,-29.39795 34.7724,-47.95557 2.65515,-6.19476 4.31018,-12.84338 6.1156,-19.36938 1.52747,-5.52179 3.72577,-11.17932 3.65985,-16.75354 -0.13635,-11.54077 -0.14734,-23.2348 -3.73498,-34.45221 -1.15393,-3.6081 -2.3902,-7.19214 -3.68293,-10.75305 -1.89898,-5.23096 -3.59637,-10.56226 -5.90808,-15.60877 -2.47052,-5.39343 -5.51416,-10.52801 -8.3786,-15.73657 -7.98804,-14.52557 -15.612,-29.27136 -24.13586,-43.4765 -8.5268,-14.21003 -17.99414,-27.85449 -27.00037,-41.77851 -8.56006,-13.23413 -16.90631,-26.60925 -25.63287,-39.73208 -6.07147,-9.13013 -14.00354,-16.00577 -25.92633,-18.54538 -1.97254,-0.17118 -3.94501,-0.49011 -5.91767,-0.4917 -38.80163,-0.0311 -77.60327,-0.0254 -116.6867,-0.63614 -0.89417,-1.12918 -1.78833,-2.25836 -2.70258,-4.22476 -2.94562,-9.77256 -5.58771,-19.65 -8.91839,-29.28949 -3.66492,-10.60666 -8.38483,-20.85785 -11.84137,-31.52436 -2.42322,-7.47775 -8.23999,-10.92068 -14.46393,-13.0353 -6.91687,-2.35001 -16.25403,1.7091 -19.27777,8.24874 -4.39344,9.50199 -7.91803,19.45359 -11.16309,29.42502 -3.15637,9.69873 -5.48413,19.66663 -8.19336,29.51148 -3.9668,14.41488 -7.72912,28.89093 -11.99219,43.21792 -3.69732,12.42585 -8.14203,24.62812 -11.92022,37.03162 -2.11853,6.95502 -3.48206,14.13684 -5.32331,21.18054 -1.20929,4.62647 -2.66412,9.18872 -4.00903,13.77973 -0.38257,-0.007 -0.76514,-0.0131 -1.1477,-0.0196 -0.91858,-2.89581 -1.83716,-5.79156 -3.04801,-9.32135 -0.24264,-1.12561 -0.48529,-2.25122 -0.72415,-4.17382 7.9e-4,-1.0636 0.002,-2.1272 -0.0493,-3.93384 -0.73901,-1.82617 -1.67584,-3.59912 -2.18423,-5.48743 -2.85507,-10.60388 -5.49036,-21.26788 -8.42612,-31.84882 -3.06814,-11.05816 -6.44653,-22.02987 -9.58047,-33.07022 -1.61655,-5.69476 -2.93488,-11.47348 -4.49613,-17.18472 -3.72641,-13.63168 -7.56384,-27.23318 -11.25979,-40.87304 -1.58985,-5.86716 -2.73825,-11.85847 -4.44849,-17.68735 -2.34433,-7.99011 -5.14718,-15.84488 -7.54666,-23.81992 -3.72138,-12.36847 -7.3916,-24.75525 -10.84863,-37.19949 -2.60639,-9.38205 -5.00162,-18.83008 -7.19443,-28.31723 -1.55942,-6.74701 -10.70957,-16.62345 -16.93756,-17.69278 -6.62222,-1.137 -15.68967,3.84424 -19.89008,10.88733 -1.10553,1.85373 -2.89581,3.51211 -3.35742,5.49618 -1.28873,5.53919 -1.39163,11.41059 -6.02844,15.70371 -0.88587,0.82022 -1.23892,2.31262 -1.62485,3.56079 -3.15594,10.20691 -6.12592,20.4736 -9.43359,30.63052 -1.9383,5.95191 -4.56818,11.67636 -6.57364,17.60901 -4.04624,11.9696 -7.73575,24.06088 -11.86371,36.00125 -1.86765,5.40219 -4.58588,10.50501 -6.62088,15.85672 -1.20639,3.17261 -1.81024,6.57202 -2.72492,9.85837 -1.9793,7.11111 -3.98428,14.21503 -6.90139,21.31982 -14.16443,-2.7e-4 -28.32883,-7e-4 -42.49326,-8.8e-4 -28.49545,-4e-4 -56.99098,-0.0324 -85.48625,0.0404 -3.44711,0.009 -6.4628,-0.55273 -7.79535,-4.04373 -7.11162,-18.63131 -14.78206,-37.08822 -20.89912,-56.04434 -3.20957,-9.94607 -4.74057,-20.75815 -5.04424,-31.23669 -0.39192,-13.52314 1.16779,-27.10596 1.97102,-40.65812 0.16642,-2.8077 0.3797,-5.68176 1.1193,-8.37478 4.05046,-14.74832 8.68979,-29.30985 16.56988,-42.54715 4.47676,-7.52023 9.3908,-14.78015 14.69675,-22.51215 1.26472,-2.52084 2.52945,-5.04168 3.99692,-8.08465 0.92421,-0.90873 1.84842,-1.81745 3.58003,-2.66797 4.30916,-0.59839 6.66856,-2.93183 6.88129,-7.97049 1.27278,-1.03842 2.54556,-2.07686 3.97567,-2.509 0.91434,0.0775 2.12496,0.57373 2.6978,0.16847 6.71253,-4.74854 13.37088,-9.57787 19.91007,-14.56108 0.69147,-0.52693 0.53409,-2.16779 1.22638,-3.86544 1.97977,-1.01048 3.95956,-2.02096 6.23389,-2.40557 0.96316,-0.2282 1.92629,-0.45641 3.64056,-0.74164 12.10483,-3.98293 24.2294,-7.90819 36.28375,-12.03845 1.19699,-0.41015 1.96558,-2.0707 3.31543,-3.42142 0,0 0.45242,0.12138 0.9053,0.7102 1.525,0.3391 3.07093,1.04456 4.57169,0.95891 11.20206,-0.63928 22.46951,-2.59372 33.57181,-1.88121 13.12414,0.84227 26.30737,3.11987 39.09228,6.28214 15.20099,3.75987 29.40931,10.4702 42.67682,18.92372 22.29376,14.20468 39.8179,33.53106 57.34049,52.94653 3.69592,4.09525 9.09183,8.13391 14.26541,9.05811 7.07098,1.26303 13.90961,-2.17646 19.026,-7.89466 8.95422,-10.00741 17.55072,-20.38159 27.05725,-29.83795 17.99164,-17.89671 38.79907,-31.4958 63.31183,-39.0226 3.14899,-0.96692 5.91626,-3.177 9.22595,-5.06736 0.22931,-0.19631 0.4187,-0.42554 0.87726,-0.86211 0,0 0.35364,0.0281 0.88202,-0.2095 0.27704,-0.26543 0.55408,-0.53086 1.19061,-1.01821 0,0 0.41657,-0.0701 0.99359,0.53768 7.35901,-0.50334 14.86682,-0.25145 22.04614,-1.66636 15.20447,-2.99647 30.28644,-3.10093 45.30073,0.33037 9.93109,2.26964 19.58581,5.74964 29.51812,8.01267 13.27936,3.02563 25.17383,9.23889 35.71039,17.19424 11.97058,9.03806 23.09552,19.4112 33.50336,30.24591 11.3742,11.84058 19.39026,26.25717 24.59332,41.79978 4.3172,12.89642 7.15967,26.28939 10.55243,39.48892 0.44672,1.73776 0.37824,3.63229 0.38501,5.45483 0.041,10.99417 0.0343,21.98853 0.0218,33.75583 -0.34515,1.74893 -0.69031,3.49783 -1.54962,5.34879 -0.15131,0.62918 -0.30261,1.25836 -0.45557,2.75958 -0.34881,3.04834 -0.69757,6.09665 -1.62921,9.29242 -0.12506,0.94449 -0.25012,1.88895 -0.38446,3.64105 -1.63904,5.73676 -3.16156,11.51001 -4.94354,17.202 -2.91272,9.30368 -5.49683,18.75592 -9.14594,27.77044 -3.60247,8.8992 -8.65655,17.20212 -12.48083,26.02363 -2.07025,4.77548 -4.82562,9.04211 -2.24158,15.58419 3.75336,9.50232 18.3905,18.28339 29.0061,10.3053 3.336,-2.50714 6.30396,-6.08679 8.21265,-9.80566 6.95099,-13.54358 13.54199,-27.28 19.9328,-41.09909 2.63403,-5.69565 4.9574,-11.65049 6.46753,-17.72477 2.633,-10.59066 4.77149,-21.32229 6.65338,-32.07608 1.53534,-8.77319 2.76837,-17.63668 3.43665,-26.51278 0.56109,-7.45191 0.11401,-14.97968 0.11401,-23.33148 -0.64331,-2.36759 -1.28656,-4.7352 -1.95996,-7.97986 -0.68024,-7.38889 -1.36054,-14.77774 -2.07391,-22.83374 -0.62671,-0.76355 -1.25342,-1.52713 -1.92621,-3.10895 -1.01941,-3.74784 -2.03882,-7.49567 -3.06067,-12.05969 -1.93317,-6.29703 -3.17468,-12.91703 -5.93463,-18.82801 -7.09235,-15.1896 -15.00574,-29.88415 -25.69763,-43.06875 -10.73169,-13.23358 -22.11634,-25.73859 -35.8202,-35.80709 -23.46447,-17.23993 -48.72528,-30.92486 -77.59088,-37.03355 -16.00067,-3.38614 -31.78491,-8.1882 -48.45514,-6.42206 -6.25317,0.66251 -12.51879,1.23682 -18.75097,2.06088 -7.87964,1.04189 -16.0315,1.332 -23.53101,3.66547 -14.87964,4.62981 -29.64111,9.85634 -43.96429,15.97636 -8.57276,3.66295 -16.22272,9.4856 -24.94873,14.63097 -0.9278,1.383 -1.85565,2.76599 -2.818,4.19234 0,0 -0.0521,0.0189 -0.44427,-0.14337 -0.27448,0.0308 -0.54895,0.0616 -0.82343,0.0924 0.20472,0.17296 0.40949,0.34592 0.39936,0.97534 -0.58216,0.31145 -1.16425,0.6229 -2.58521,0.80078 -0.7052,0.77727 -1.41034,1.55455 -2.24634,2.65494 0,0 -0.34698,0.0327 -1.07415,-0.3246 -0.84998,0.94289 -1.69989,1.88577 -2.6977,3.23769 -0.37133,0.20825 -0.74273,0.41651 -1.93127,0.44516 -2.37518,0.20839 -5.50208,-0.31095 -4.06152,4.4448 -0.99775,0.76857 -1.99549,1.53716 -3.14521,1.72965 -1.4049,0.4743 -3.18982,0.55513 -4.15374,1.48605 -6.83204,6.59803 -13.6449,13.23018 -20.14905,20.1474 -3.13559,3.3347 -4.81445,2.40714 -7.38739,-0.6448 -12.07245,-14.32019 -25.93235,-26.91059 -41.43286,-37.23139 -12.38202,-8.24441 -25.93103,-14.81843 -39.266,-21.52992 -19.34112,-9.73444 -40.56085,-13.53508 -61.64721,-16.27733 -15.64969,-2.0352 -31.82862,-1.22735 -47.43793,2.39704 -12.06973,2.80256 -24.08334,6.05169 -35.8381,9.95655 -16.4335,5.45906 -31.7415,13.29 -45.92972,23.39898 -15.38762,10.96357 -29.80969,23.03134 -41.10515,38.15182 -9.22685,12.35139 -18.04419,25.22939 -25.20334,38.84148 -6.89088,13.10205 -12.00488,27.23541 -14.85033,41.9851 -1.33598,6.92533 -4.11102,13.78727 -4.17787,20.69782 -0.13243,13.69382 -3.00322,27.12402 -0.73845,41.17154 2.61394,16.21319 3.44594,32.67157 9.49064,48.19275 6.30909,16.20007 12.04451,32.65384 19.081,48.53125 6.08413,13.72839 13.14782,27.09067 20.69748,40.08072 6.40079,11.01336 13.8153,21.48163 21.32462,31.79547 9.3669,12.86529 19.07416,25.49902 29.03496,37.91131 10.08444,12.56641 20.37442,24.99347 31.10211,37.01038 9.397,10.52631 19.45105,20.47345 29.39364,30.49908 2.03733,2.05439 4.86811,3.32178 7.85227,4.98291 0.17331,0.002 0.34665,0.005 0.88339,0.35071 0.26196,0.36804 0.52393,0.73603 0.79022,1.85492 1.1062,1.60278 1.95118,3.49555 3.35871,4.76392 15.4165,13.89239 30.62387,28.03924 46.47726,41.41876 19.24564,16.24231 38.91379,31.9953 58.67188,47.61499 13.64724,10.78888 27.66589,21.11688 41.69516,31.4101 7.87973,5.78131 16.05114,11.17584 24.22226,16.54504 4.39923,2.89075 8.82806,5.99963 13.68197,7.87598 8.02271,3.10138 14.99463,-0.65851 21.31214,-5.26825 22.6817,-16.55066 45.30212,-33.18665 67.80542,-49.9784 1.70355,-1.27112 2.30523,-4.01892 3.35937,-6.36908 0,0 0.21308,-0.20385 0.59766,-0.5368 0.17035,-0.29077 0.34064,-0.58148 0.51025,-0.79138 z"
   id="path1" />




<path
   fill="#fbfcfc"
   opacity="1"
   stroke="none"
   d="m 316.83868,218.64636 c 0,0 -0.45242,-0.12138 -1.0484,-0.0398 -6.38656,1.67468 -12.17712,3.26779 -18.21505,4.84878 -0.24735,-0.0121 -0.60596,0.32949 -0.99024,0.32627 -7.13473,2.91911 -13.88516,5.84141 -20.99429,8.81222 -0.94397,0.44969 -1.52927,0.85089 -2.24274,1.1962 -0.34875,-0.032 -0.47134,0.0901 -0.496,0.31058 -1.97977,1.01048 -3.95956,2.02096 -6.4971,3.36972 -8.18314,5.99667 -15.80846,11.65509 -23.43379,17.31349 -1.2728,1.03842 -2.54558,2.07686 -4.27828,3.53026 -2.71621,2.77575 -4.9725,5.1365 -7.22879,7.49731 -0.92419,0.90872 -1.8484,1.81744 -3.16075,3.15811 -1.73418,2.13901 -3.08022,3.84607 -4.72572,5.72583 -23.40067,28.53077 -35.08086,61.07962 -36.37523,97.55585 -1.413,39.81894 10.90451,76.0015 28.92828,111.16617 1.76657,0.85498 3.41904,1.69327 5.07291,1.69607 42.6338,0.0722 85.26793,0.008 127.90141,0.14835 3.57379,0.0118 5.18231,-1.00205 6.3645,-4.39612 11.38684,-32.69083 22.97357,-65.31198 34.45554,-97.96975 6.18161,-17.5821 12.23148,-35.21052 18.42038,-52.78998 2.54349,-7.2247 8.92837,-11.9328 15.69165,-11.85059 7.26327,0.0883 12.78735,4.30743 15.44244,11.9743 0.97803,2.82413 1.68332,5.74372 2.48798,8.62671 16.01327,57.37363 32.01504,114.75049 48.03747,172.12156 5.59256,20.02508 11.23432,40.03643 16.80536,60.38751 0.057,0.76733 0.16224,1.20123 0.21067,1.97589 0.55371,1.78229 1.16418,3.22381 1.76263,5.08362 1.75754,7.02081 3.5271,13.62347 5.42279,20.69647 0.78931,-0.91065 1.11487,-1.12146 1.19501,-1.40222 9.14337,-32.03223 18.18841,-64.09265 27.41925,-96.09958 7.79095,-27.01404 15.76819,-53.97449 23.74768,-80.93363 0.84003,-2.83807 1.8103,-5.81897 3.48798,-8.19052 3.65686,-5.1694 8.93878,-7.37967 15.26995,-6.30612 6.89203,1.16861 11.07874,5.41254 13.42163,11.93643 7.30439,20.33933 14.76056,40.62415 22.15229,61.19727 0.10943,0.40317 0.22442,0.53921 0.3529,0.99823 0.45996,1.49393 0.90656,2.66485 1.51837,4.10248 0.53815,0.37997 0.91101,0.49328 1.53467,0.68206 0.41504,0.0163 0.57935,-0.0428 1.07489,-0.0324 0.77564,0.0128 1.22003,-0.044 2.03528,-0.0136 1.1261,0.0299 1.88135,-0.0275 3.09839,-7.3e-4 17.81763,0.0253 35.17334,-0.0336 52.96094,-0.008 2.47943,0.0288 4.5271,-0.0274 7.03674,2.8e-4 9.15228,0.027 17.84241,-0.0298 26.92767,-10e-4 1.4668,0.0291 2.53858,-0.0269 4.06696,10e-4 4.48535,0.0295 8.51404,-0.0254 12.98974,0.006 3.47895,0.0462 6.51105,0.006 9.896,0.10508 12.23761,1.33645 20.59967,7.61505 26.7121,17.68579 5.52948,9.11016 11.76855,17.78753 17.37402,26.85406 19.26666,31.16254 38.83753,62.15039 57.39868,93.73029 10.47876,17.82849 18.61219,36.94824 21.3573,57.77118 3.72138,28.22906 -3.23358,54.198 -19.2586,77.2843 -27.27918,39.29956 -64.57135,60.26398 -113.22071,56.3222 -35.1391,-2.8471 -63.0982,-20.31744 -84.56567,-47.78082 -20.92859,-26.77399 -29.30463,-57.11499 -23.37555,-91.04108 3.67029,-21.00116 11.63117,-40.44079 22.53613,-58.43536 19.42035,-32.0462 39.81556,-63.50171 59.79041,-95.21222 0.63635,-1.01019 1.13263,-2.10864 1.9563,-3.65955 -1.83966,0 -2.97614,-5.5e-4 -4.11261,1.3e-4 -30.66565,0.0182 -61.3313,0.0551 -91.99695,0.0454 -11.42181,-0.004 -17.1095,-4.20972 -20.78851,-15.00229 -2.36158,-6.92795 -4.86945,-13.80603 -7.32367,-21.06235 -0.51068,-1.74664 -1.00958,-3.13733 -1.50849,-4.52801 -0.32891,0.0422 -0.65783,0.0844 -0.98675,0.12667 -1.04785,4.05075 -2.09571,8.10151 -3.14356,12.15226 -0.0974,0.17654 -0.19464,0.35305 -0.4552,1.10675 -10.36395,35.91156 -20.51434,71.26062 -30.78314,106.57525 -6.64807,22.86298 -13.422,45.68982 -20.23486,68.50428 -2.95337,9.88995 -10.88068,14.69744 -20.21237,12.3789 -6.65946,-1.65454 -10.35288,-6.2876 -12.11066,-12.68908 -6.8775,-25.0467 -13.76663,-50.09034 -20.62277,-75.14289 -17.05088,-62.3045 -34.08115,-124.61462 -51.13987,-186.91699 -1.00869,-3.68402 -2.19509,-7.3194 -3.65121,-12.14542 -13.22183,37.86054 -25.94696,74.31848 -38.68781,110.77097 -4.3453,12.43219 -9.1249,15.85229 -22.12631,15.85413 -40.32708,0.006 -80.6542,-0.001 -120.98131,-0.003 -1.44381,-1.2e-4 -2.88761,0 -4.92288,0 0.73928,1.33631 1.07274,2.04145 1.49533,2.68842 30.13182,46.12109 66.0277,87.4314 105.49221,125.69641 13.49737,13.08716 27.68643,25.46088 41.55947,38.16058 0,0 0.0802,-0.10547 0.11722,0.18238 0.35141,0.46997 0.66587,0.6521 1.12738,1.12548 2.77475,2.5896 5.38767,4.90503 8.03226,7.18372 36.07755,31.08466 74.67542,58.89038 113.10727,86.91119 7.58356,5.52924 9.01398,5.28974 15.43164,-2.31103 0.099,-0.11725 0.28998,-0.15686 0.43799,-0.23273 0.6004,-0.43127 1.20081,-0.86255 2.26941,-1.67163 2.42926,-1.58557 4.47735,-2.67303 6.33734,-4.0202 14.94635,-10.82581 29.80054,-21.77985 44.80243,-32.52783 7.7492,-5.55188 15.39599,-5.44818 22.05261,-0.1781 6.40045,5.06713 7.70038,11.89306 3.83746,21.23333 -0.34967,0.35938 -0.47186,0.62207 -0.55053,0.90509 0,0 0.074,0.0327 -0.1969,0.0805 -0.38849,0.39068 -0.50623,0.73358 -0.62396,1.07648 0,0 -0.21308,0.20385 -0.49433,0.51208 -7.28583,5.65875 -14.20819,11.12122 -21.31134,16.33759 -17.57593,12.90728 -35.25561,25.67328 -52.84906,38.55694 -6.36737,4.66284 -13.62845,6.41217 -20.45056,2.8078 -7.10269,-3.75274 -13.16019,-9.44659 -19.81381,-14.09234 -49.44944,-34.52704 -97.39655,-70.96015 -142.08963,-111.54651 -7.85282,-7.13129 -15.85803,-14.09467 -23.79288,-21.13562 -0.26193,-0.36804 -0.5239,-0.73603 -0.98721,-1.56525 -0.52948,-0.61353 -0.85761,-0.76593 -1.41535,-1.16858 -1.23602,-1.53302 -2.15753,-2.89453 -3.26168,-4.08685 -17.41953,-18.81006 -35.51859,-37.03742 -52.16688,-56.50574 -37.52705,-43.88367 -69.66618,-91.27167 -91.08187,-145.35678 -13.49912,-34.09183 -20.77193,-69.02508 -17.1585,-105.91788 5.71254,-58.32428 31.77642,-105.41003 78.50646,-140.39555 45.43994,-34.01965 96.91119,-45.25311 152.67853,-35.60788 44.88668,7.76338 82.22418,29.83601 113.55731,62.51594 4.46136,4.65317 8.88516,9.34238 11.63656,12.23713 10.03177,-9.03452 19.77378,-17.80802 29.51578,-26.58149 0.99774,-0.76855 1.99548,-1.53714 3.45996,-2.67431 1.78174,-1.54459 3.09686,-2.7206 4.41199,-3.89659 0.37134,-0.20826 0.74274,-0.41652 1.47534,-0.91979 1.26209,-1.05845 2.16284,-1.82193 3.0636,-2.58539 0,0 0.34698,-0.0327 0.70386,-0.30244 1.14734,-0.93037 1.9378,-1.59099 2.72827,-2.25162 0.58215,-0.31144 1.16424,-0.62289 2.05847,-1.20213 0.31207,-0.26781 0.50421,-0.63776 0.50421,-0.63776 0,0 0.0521,-0.0189 0.34833,-0.10467 1.33313,-0.88051 2.36999,-1.67519 3.77777,-2.56978 53.01611,-33.29811 109.26282,-43.67597 169.43189,-25.43832 50.95458,15.4447 90.23284,46.32296 116.24273,92.98756 6.74158,12.09524 10.98047,25.58548 16.37244,38.76334 0.22729,1.16787 0.45111,2.00735 0.656,3.14263 0.20185,0.616 0.42267,0.93619 0.56702,1.3722 -0.0763,0.11578 0.13635,0.29385 0.10645,0.65576 0.35974,1.73337 0.74939,3.1048 1.11486,4.90002 1.61518,14.19287 3.2544,27.96195 4.76294,41.96137 -0.0209,1.08221 0.0889,1.93414 0.13544,3.21933 -0.0343,2.47418 -0.005,4.51507 -0.12396,6.72531 -0.0633,0.73318 0.0209,1.29706 0.0164,2.26727 -0.35968,5.0874 -0.6308,9.76846 -1.04877,14.59534 -0.1806,0.28009 -0.25885,0.42151 -0.23871,0.54715 0.0416,0.25937 0.13556,0.51031 0.0722,1.11093 -1.26349,7.07449 -2.30256,13.81903 -3.53406,20.52826 -5.57196,30.35611 -17.82587,58.15652 -32.87104,84.82642 -4.3529,7.71606 -14.74896,10.10101 -22.3175,5.71148 -8.05823,-4.67355 -10.45972,-14.4414 -6.49719,-22.31875 7.61011,-15.12842 14.33832,-30.77628 20.27783,-46.6409 3.57062,-9.53711 4.96057,-19.89066 7.62115,-30.107 0.46595,-1.70352 0.6413,-3.17734 0.78406,-4.63653 -0.0326,0.0145 0.007,0.0737 0.15027,-0.0488 0.29932,-0.37583 0.27087,-0.60626 0.25641,-1.14923 0.22754,-0.84921 0.25604,-1.36292 0.43841,-2.18384 0.13099,-0.75891 0.1081,-1.21057 0.22584,-2.0303 0.3634,-2.46125 0.58612,-4.55445 0.97521,-7.02219 0.39441,-7.69055 0.83155,-15.00708 0.81403,-22.32254 -0.074,-30.94009 -8.08722,-59.67743 -25.56415,-85.276 -29.31793,-42.94235 -70.04516,-67.42377 -121.84594,-72.74414 -19.47461,-2.0002 -38.84858,-0.49341 -57.72284,5.27392 0,0 -0.41657,0.0701 -0.92658,0.14902 -0.74298,0.4449 -0.97601,0.81085 -1.20898,1.1768 0,2e-5 -0.35364,-0.028 -0.763,0.0169 -0.57276,0.0992 -0.73621,0.15351 -1.29486,0.11693 -19.64063,4.91325 -36.96607,13.95006 -53.02668,25.4456 -18.17108,13.00615 -32.75537,29.72283 -47.46356,46.33296 -2.80939,3.17267 -6.91791,5.93854 -10.94769,7.12748 -7.68183,2.26635 -13.7507,-1.40058 -18.82208,-7.30414 -16.86762,-19.6355 -34.5376,-38.45682 -56.58139,-52.50597 -23.74732,-15.13482 -49.47895,-24.43611 -78.0015,-26.1075 -1.06937,-0.12857 -1.9259,-0.10159 -3.18121,-0.18591 -14.17966,0.87355 -27.96048,1.85838 -41.74134,2.84323 M 757.6315,782.88449 c 0.80756,-0.23736 1.61517,-0.47473 3.28632,-0.64154 3.22259,-0.69458 6.49072,-1.22534 9.66076,-2.10858 39.19641,-10.92065 66.409,-47.67621 65.5672,-88.29816 -0.37066,-17.8847 -6.75396,-34.10498 -15.49334,-49.0213 -21.36255,-36.46136 -43.72571,-72.33679 -65.72516,-108.42425 -2.82129,-4.62787 -5.87506,-9.11408 -9.06757,-14.04676 -1.05005,1.48017 -1.75134,2.37708 -2.35632,3.33478 -15.46686,24.48615 -31.12586,48.85394 -46.3208,73.50781 -13.09638,21.24891 -26.42359,42.45179 -35.01892,66.07233 -12.07074,33.17151 -6.11029,63.10278 16.95056,90.41358 1.81732,1.70623 3.61743,3.43121 5.45471,5.11566 14.62988,13.41278 31.44067,22.14166 52.26501,24.21331 6.71973,-0.0862 13.4394,-0.17236 20.79755,-0.11688 z"
   id="path6" />
<path
   fill="#1d3268"
   opacity="1"
   stroke="none"
   d="m 383.83734,684.87488 c -13.90524,-12.32263 -28.0943,-24.69635 -41.59167,-37.78351 -39.46451,-38.26501 -75.36039,-79.57532 -105.49221,-125.69641 -0.42259,-0.64697 -0.75605,-1.35211 -1.49533,-2.68842 2.03527,0 3.47907,-1.2e-4 4.92288,0 40.32711,0.002 80.65423,0.009 120.98131,0.003 13.00141,-0.002 17.78101,-3.42194 22.12631,-15.85413 12.74085,-36.45249 25.46598,-72.91043 38.68781,-110.77097 1.45612,4.82602 2.64252,8.4614 3.65121,12.14542 17.05872,62.30237 34.08899,124.61249 51.13987,186.91699 6.85614,25.05255 13.74527,50.09619 20.62277,75.14289 1.75778,6.40148 5.4512,11.03454 12.11066,12.68908 9.33169,2.31854 17.259,-2.48895 20.21237,-12.3789 6.81286,-22.81446 13.58679,-45.6413 20.23486,-68.50428 10.2688,-35.31463 20.41919,-70.66369 30.80261,-106.27356 0.28229,1.79529 0.87104,3.98487 0.40149,5.91727 -2.93579,12.08191 -5.9505,24.14975 -9.24853,36.13706 -2.9823,10.83978 -6.43952,21.54803 -9.53925,32.35674 -2.90735,10.13788 -5.46655,20.3772 -8.47455,30.48395 -1.95471,6.56769 -4.6994,12.90167 -6.62268,19.47705 -2.64557,9.04523 -4.62195,18.28723 -7.30517,27.32013 -2.77405,9.33856 -5.46338,18.77887 -9.2793,27.70905 -3.52942,8.25958 -10.47418,12.12115 -19.82043,10.77667 -8.15787,-1.17346 -12.97184,-6.08588 -15.49256,-13.56299 -2.80246,-8.31268 -5.70764,-16.60388 -8.10571,-25.03595 -2.35404,-8.27728 -4.01071,-16.75024 -6.19586,-25.07898 -1.49747,-5.70746 -3.42621,-11.30035 -5.07312,-16.97033 -3.22312,-11.09626 -6.48648,-22.18268 -9.52146,-33.33088 -1.25616,-4.61419 -1.74399,-9.43658 -2.98092,-14.05725 -1.74894,-6.53314 -4.07306,-12.91357 -5.7872,-19.45465 -3.71769,-14.18652 -6.92676,-28.51101 -10.86518,-42.63369 -3.78256,-13.56391 -8.37109,-26.90137 -12.29776,-40.42768 -1.47085,-5.06662 -1.73657,-10.47943 -3.15707,-15.5653 -1.84607,-6.60938 -4.36164,-13.02906 -6.45911,-19.57203 -1.12759,-3.5176 -1.98343,-7.12237 -2.96188,-10.6878 -0.50751,-0.0231 -1.01502,-0.0461 -1.52252,-0.0693 -2.14508,6.13694 -4.31439,12.26551 -6.4307,18.41233 -6.73199,19.55328 -13.38891,39.13263 -20.19018,58.6618 -2.89234,8.3049 -6.00888,16.53369 -9.13663,24.75409 -3.24997,8.54172 -12.16004,14.61612 -21.22397,14.61697 -38.65027,0.004 -77.30054,0.002 -115.95079,0.002 -1.90941,0 -3.8188,0 -7.00716,0 1.95432,3.2373 3.04421,5.39941 4.45819,7.32324 6.10021,8.29993 12.20475,16.59961 18.47858,24.76813 8.18668,10.65906 16.23212,21.44946 24.89203,31.71631 10.26944,12.17517 20.88245,24.08508 31.8111,35.67169 8.30545,8.80548 17.32104,16.94257 26.04974,25.34692 9.19425,8.85254 18.40064,17.69281 27.65262,26.48487 2.28406,2.17053 4.92648,3.97949 7.09549,6.24957 1.28793,1.34802 1.97302,3.27203 2.897,5.31415 z"
   id="path7" />
<path
   fill="#1e3469"
   opacity="1"
   stroke="none"
   d="m 586.83716,483.01868 c 2.44238,6.90042 4.95025,13.7785 7.31183,20.70645 3.67901,10.79257 9.3667,14.99862 20.78851,15.00229 30.66565,0.01 61.3313,-0.0272 91.99695,-0.0454 1.13647,-6.8e-4 2.27295,-1.3e-4 4.11261,-1.3e-4 -0.82367,1.55091 -1.31995,2.64936 -1.9563,3.65955 -19.97485,31.71051 -40.37006,63.16602 -59.79041,95.21222 -10.90496,17.99457 -18.86584,37.4342 -22.53613,58.43536 -5.92908,33.92609 2.44696,64.26709 23.37555,91.04108 21.46747,27.46338 49.42657,44.93372 84.56567,47.78082 48.64936,3.94178 85.94153,-17.02264 113.22071,-56.3222 16.02502,-23.0863 22.97998,-49.05524 19.2586,-77.2843 -2.74511,-20.82294 -10.87854,-39.94269 -21.3573,-57.77118 -18.56115,-31.5799 -38.13202,-62.56775 -57.39868,-93.73029 -5.60547,-9.06653 -11.84454,-17.7439 -17.37402,-26.85406 -6.11243,-10.07074 -14.47449,-16.34934 -26.60309,-18.02082 1.0191,-0.92688 2.28198,-1.37887 3.54486,-1.8309 11.2522,2.05472 19.18427,8.93036 25.25574,18.06049 8.72656,13.12283 17.07281,26.49795 25.63287,39.73208 9.00623,13.92402 18.47357,27.56848 27.00037,41.77851 8.52386,14.20514 16.14782,28.95093 24.13586,43.4765 2.86444,5.20856 5.90808,10.34314 8.3786,15.73657 2.31171,5.04651 4.0091,10.37781 5.90808,15.60877 1.29273,3.56091 2.529,7.14495 3.68293,10.75305 3.58764,11.21741 3.59863,22.91144 3.73498,34.45221 0.0659,5.57422 -2.13238,11.23175 -3.65985,16.75354 -1.80542,6.526 -3.46045,13.17462 -6.1156,19.36938 -7.95416,18.55762 -19.2334,34.71765 -34.7724,47.95557 -11.92322,10.15753 -24.87665,18.40491 -39.45538,23.92529 -21.58283,8.17279 -44.02625,11.68427 -66.54889,5.98169 -12.39545,-3.13843 -24.32868,-9.03345 -35.68531,-15.14459 -21.78216,-11.72101 -38.2395,-29.23255 -49.65185,-51.11591 -5.09454,-9.76898 -10.02625,-19.74633 -11.18817,-31.15069 -0.63989,-6.28076 -2.99048,-12.37018 -4.13385,-18.62555 -0.42401,-2.31958 0.33282,-4.87586 0.66614,-7.30841 0.5578,-4.0697 0.97485,-8.17865 1.86596,-12.17871 2.09705,-9.41224 4.19538,-18.83747 6.77295,-28.12433 1.54389,-5.56244 3.65876,-11.03015 6.11231,-16.26129 3.63476,-7.74939 7.46679,-15.44581 11.80401,-22.81818 9.39734,-15.97375 19.05457,-31.79834 28.83887,-47.53888 4.26953,-6.86865 9.18897,-13.32996 13.67419,-20.06885 5.01148,-7.52948 9.86512,-15.164 15.36988,-23.65082 -2.92639,-0.26 -4.80841,-0.57061 -6.69074,-0.57293 -26.16528,-0.0319 -52.3305,-0.009 -78.49579,-0.0336 -4.80627,-0.005 -9.61419,-0.11499 -14.41699,-0.29492 -0.91553,-0.0342 -2.14111,-0.35798 -2.66162,-1.0022 -3.81189,-4.71783 -7.99762,-9.24692 -11.0509,-14.43286 -3.13452,-5.32382 -5.11811,-11.32526 -7.89069,-17.48853 0.6181,-2.22259 1.52155,-3.98675 2.42493,-5.75091 z"
   id="path8" />
<path
   fill="#20366c"
   opacity="1"
   stroke="none"
   d="m 538.93225,231.72757 c -9.66595,9.06152 -19.40796,17.83502 -29.43973,26.86954 -2.7514,-2.89475 -7.1752,-7.58396 -11.63656,-12.23713 -31.33313,-32.67993 -68.67063,-54.75256 -113.55731,-62.51594 -55.76734,-9.64523 -107.23859,1.58823 -152.67853,35.60788 -46.73004,34.98552 -72.79392,82.07127 -78.50646,140.39555 -3.61343,36.8928 3.65938,71.82605 17.1585,105.91788 21.41569,54.08511 53.55482,101.47311 91.08187,145.35678 16.64829,19.46832 34.74735,37.69568 52.16688,56.50574 1.10415,1.19232 2.02566,2.55383 3.25631,4.33624 0.22421,0.4997 0.21954,0.99872 0.21954,0.99872 -2.46502,-1.63019 -5.2958,-2.89758 -7.33313,-4.95197 -9.94259,-10.02563 -19.99664,-19.97277 -29.39364,-30.49908 -10.72769,-12.01691 -21.01767,-24.44397 -31.10211,-37.01038 -9.9608,-12.41229 -19.66806,-25.04602 -29.03496,-37.91131 -7.50932,-10.31384 -14.92383,-20.78211 -21.32462,-31.79547 -7.54966,-12.99005 -14.61335,-26.35233 -20.69748,-40.08072 -7.03649,-15.87741 -12.77191,-32.33118 -19.081,-48.53125 -6.0447,-15.52118 -6.8767,-31.97956 -9.49064,-48.19275 -2.26477,-14.04752 0.60602,-27.47772 0.73845,-41.17154 0.0669,-6.91055 2.84189,-13.77249 4.17787,-20.69782 2.84545,-14.74969 7.95945,-28.88305 14.85033,-41.9851 7.15915,-13.61209 15.97649,-26.49009 25.20334,-38.84148 11.29546,-15.12048 25.71753,-27.18825 41.10515,-38.15182 14.18822,-10.10898 29.49622,-17.93992 45.92972,-23.39898 11.75476,-3.90486 23.76837,-7.15399 35.8381,-9.95655 15.60931,-3.62439 31.78824,-4.43224 47.43793,-2.39704 21.08636,2.74225 42.30609,6.54289 61.64721,16.27733 13.33497,6.71149 26.88398,13.28551 39.266,21.52992 15.50051,10.3208 29.36041,22.9112 41.43286,37.23139 2.57294,3.05194 4.2518,3.9795 7.38739,0.6448 6.50415,-6.91722 13.31701,-13.54937 20.14905,-20.1474 0.96392,-0.93092 2.74884,-1.01175 4.22967,-1.19804 z"
   id="path9" />
<path
   fill="#1c3165"
   opacity="1"
   stroke="none"
   d="m 506.80847,571.03198 c -5.61929,-20.01764 -11.26105,-40.02899 -16.85361,-60.05407 -16.02243,-57.37107 -32.0242,-114.74793 -48.03747,-172.12156 -0.80466,-2.88299 -1.50995,-5.80258 -2.48798,-8.62671 -2.65509,-7.66687 -8.17917,-11.88604 -15.44244,-11.9743 -6.76328,-0.0822 -13.14816,4.62589 -15.69165,11.85059 -6.1889,17.57946 -12.23877,35.20788 -18.42038,52.78998 -11.48197,32.65777 -23.0687,65.27892 -34.45554,97.96975 -1.18219,3.39407 -2.79071,4.40793 -6.3645,4.39612 -42.63348,-0.14084 -85.26761,-0.0762 -127.90141,-0.14835 -1.65387,-0.003 -3.30634,-0.84109 -4.60227,-1.70593 43.61531,-0.41492 86.87349,-0.40018 130.13152,-0.45511 2.08227,-0.003 4.16379,-0.61969 6.24564,-0.95062 1.99447,-7.1069 3.99945,-14.21082 5.97875,-21.32193 0.91468,-3.28635 1.51853,-6.68576 2.72492,-9.85837 2.035,-5.35171 4.75323,-10.45453 6.62088,-15.85672 4.12796,-11.94037 7.81747,-24.03165 11.86371,-36.00125 2.00546,-5.93265 4.63534,-11.6571 6.57364,-17.60901 3.30767,-10.15692 6.27765,-20.42361 9.43359,-30.63052 0.38593,-1.24817 0.73898,-2.74057 1.62485,-3.56079 4.63681,-4.29312 4.73971,-10.16452 6.02844,-15.70371 0.46161,-1.98407 2.25189,-3.64245 3.35742,-5.49618 4.20041,-7.04309 13.26786,-12.02433 19.89008,-10.88733 6.22799,1.06933 15.37814,10.94577 16.93756,17.69278 2.19281,9.48715 4.58804,18.93518 7.19443,28.31723 3.45703,12.44424 7.12725,24.83102 10.84863,37.19949 2.39948,7.97504 5.20233,15.82981 7.54666,23.81992 1.71024,5.82888 2.85864,11.82019 4.44849,17.68735 3.69595,13.63986 7.53338,27.24136 11.25979,40.87304 1.56125,5.71124 2.87958,11.48996 4.49613,17.18472 3.13394,11.04035 6.51233,22.01206 9.58047,33.07022 2.93576,10.58094 5.57105,21.24494 8.42612,31.84882 0.50839,1.88831 1.44522,3.66126 1.8988,5.93421 -1.14135,1.07391 -1.99731,1.70104 -2.85327,2.32824 z"
   id="path10" />
<path
   fill="#20376d"
   opacity="1"
   stroke="none"
   d="m 863.58368,320.85532 c -5.38849,-12.84946 -9.62738,-26.3397 -16.36896,-38.43494 -26.00989,-46.6646 -65.28815,-77.54286 -116.24273,-92.98756 -60.16907,-18.23765 -116.41578,-7.85979 -169.48316,24.95524 -0.46258,-0.70448 -0.50299,-1.0258 -0.54346,-1.34714 8.0647,-4.85191 15.71466,-10.67456 24.28742,-14.33751 14.32318,-6.12002 29.08465,-11.34655 43.96429,-15.97636 7.49951,-2.33347 15.65137,-2.62358 23.53101,-3.66547 6.23218,-0.82406 12.4978,-1.39837 18.75097,-2.06088 16.67023,-1.76614 32.45447,3.03592 48.45514,6.42206 28.8656,6.10869 54.12641,19.79362 77.59088,37.03355 13.70386,10.0685 25.08851,22.57351 35.8202,35.80709 10.69189,13.1846 18.60528,27.87915 25.69763,43.06875 2.75995,5.91098 4.00146,12.53098 5.66107,19.51599 -0.55579,1.12775 -0.83801,1.56745 -1.1203,2.00718 z"
   id="path11" />
<path
   fill="#1d336a"
   opacity="1"
   stroke="none"
   d="m 361.97406,216.14459 c 28.30972,1.51584 54.04135,10.81713 77.78867,25.95195 22.04379,14.04915 39.71377,32.87047 56.58139,52.50597 5.07138,5.90356 11.14025,9.57049 18.82208,7.30414 4.02978,-1.18894 8.1383,-3.95481 10.94769,-7.12748 14.70819,-16.61013 29.29248,-33.32681 47.46356,-46.33296 16.06061,-11.49554 33.38605,-20.53235 53.03962,-25.22896 0.40808,0.30753 0.44842,0.73977 0.44842,0.73975 -2.94409,1.63417 -5.71136,3.84425 -8.86035,4.81117 -24.51276,7.5268 -45.32019,21.12589 -63.31183,39.0226 -9.50653,9.45636 -18.10303,19.83054 -27.05725,29.83795 -5.11639,5.7182 -11.95502,9.15769 -19.026,7.89466 -5.17358,-0.9242 -10.56949,-4.96286 -14.26541,-9.05811 -17.52259,-19.41547 -35.04673,-38.74185 -57.34049,-52.94653 -13.26751,-8.45352 -27.47583,-15.16385 -42.67682,-18.92372 -12.78491,-3.16227 -25.96814,-5.43987 -39.09228,-6.28214 -11.1023,-0.71251 -22.36975,1.24193 -33.57181,1.88121 -1.50076,0.0857 -3.04669,-0.61981 -4.79812,-1.25333 13.55441,-1.27925 27.33523,-2.26408 41.70715,-2.92459 1.46127,0.25904 2.33154,0.19373 3.20178,0.12842 z"
   id="path12" />
<path
   fill="#1f3469"
   opacity="1"
   stroke="none"
   d="m 620.85565,479.05588 c -7.39728,-20.30597 -14.85345,-40.59079 -22.15784,-60.93012 -2.34289,-6.52389 -6.5296,-10.76782 -13.42163,-11.93643 -6.33117,-1.07355 -11.61309,1.13672 -15.26995,6.30612 -1.67768,2.37155 -2.64795,5.35245 -3.48798,8.19052 -7.97949,26.95914 -15.95673,53.91959 -23.74768,80.93363 -9.23084,32.00693 -18.27588,64.06735 -27.41925,96.09958 -0.0801,0.28076 -0.4057,0.49157 -1.19501,1.40222 -1.89569,-7.073 -3.66525,-13.67566 -5.10541,-20.73688 0.87363,-0.7677 1.41782,-1.07678 1.96198,-1.38586 0.91858,2.89575 1.83716,5.7915 2.75574,8.68731 0.38256,0.007 0.76513,0.0131 1.1477,0.0196 1.34491,-4.59101 2.79974,-9.15326 4.00903,-13.77973 1.84125,-7.0437 3.20478,-14.22552 5.32331,-21.18054 3.77819,-12.4035 8.2229,-24.60577 11.92022,-37.03162 4.26307,-14.32699 8.02539,-28.80304 11.99219,-43.21792 2.70923,-9.84485 5.03699,-19.81275 8.19336,-29.51148 3.24506,-9.97143 6.76965,-19.92303 11.16309,-29.42502 3.02374,-6.53964 12.3609,-10.59875 19.27777,-8.24874 6.22394,2.11462 12.04071,5.55755 14.46393,13.0353 3.45654,10.66651 8.17645,20.9177 11.84137,31.52436 3.33068,9.63949 5.97277,19.51693 8.75952,29.91495 -0.4408,0.84054 -0.7226,1.05566 -1.00446,1.27075 z"
   id="path13" />
<path
   fill="#1f356b"
   opacity="1"
   stroke="none"
   d="m 319.18732,674.82398 c 7.93268,6.66552 15.93789,13.6289 23.79071,20.76019 44.69308,40.58636 92.64019,77.01947 142.08963,111.54651 6.65362,4.64575 12.71112,10.3396 19.81381,14.09234 6.82211,3.60437 14.08319,1.85504 20.45056,-2.8078 17.59345,-12.88366 35.27313,-25.64966 52.84906,-38.55694 7.10315,-5.21637 14.02551,-10.67884 21.34125,-16.19318 -0.8028,1.89752 -1.40448,4.64532 -3.10803,5.91644 -22.5033,16.79175 -45.12372,33.42774 -67.80542,49.9784 -6.31751,4.60974 -13.28943,8.36963 -21.31214,5.26825 -4.85391,-1.87635 -9.28274,-4.98523 -13.68197,-7.87598 -8.17112,-5.3692 -16.34253,-10.76373 -24.22226,-16.54504 -14.02927,-10.29322 -28.04792,-20.62122 -41.69516,-31.4101 -19.75809,-15.61969 -39.42624,-31.37268 -58.67188,-47.61499 -15.85339,-13.37952 -31.06076,-27.52637 -46.47726,-41.41876 -1.40753,-1.26837 -2.25251,-3.16114 -3.3609,-5.13934 z"
   id="path14" />
<path
   fill="#1c3268"
   opacity="1"
   stroke="none"
   d="m 863.58716,321.18372 c 0.27881,-0.76813 0.56103,-1.20783 1.11804,-1.92746 1.29419,3.46792 2.3136,7.21575 3.35346,11.70559 0.65991,1.50605 1.29937,2.27005 1.9389,3.03406 0.68023,7.38889 1.36053,14.77774 2.03979,23.02942 0.65271,3.23343 1.30646,5.60406 1.96021,7.97467 7.3e-4,7.4942 0.44781,15.02197 -0.11328,22.47388 -0.66828,8.8761 -1.90131,17.73959 -3.43665,26.51278 -1.88189,10.75379 -4.02038,21.48542 -6.65338,32.07608 -1.51013,6.07428 -3.8335,12.02912 -6.46753,17.72477 -6.39081,13.81909 -12.98181,27.55551 -19.9328,41.09909 -1.90869,3.71887 -4.87665,7.29852 -8.21265,9.80566 -10.6156,7.97809 -25.25274,-0.80298 -29.0061,-10.3053 -2.58404,-6.54208 0.17133,-10.80871 2.24158,-15.58419 3.82428,-8.82151 8.87836,-17.12443 12.48083,-26.02363 3.64911,-9.01452 6.23322,-18.46676 9.14594,-27.77044 1.78198,-5.69199 3.3045,-11.46524 5.16595,-17.84622 0.39655,-1.47757 0.57074,-2.31092 0.74494,-3.14426 0.34875,-3.04834 0.69751,-6.09665 1.25201,-9.78024 0.39179,-1.16562 0.57788,-1.69599 0.76404,-2.22635 0.34515,-1.74894 0.69031,-3.49784 1.28918,-5.51508 0.73261,-0.0163 1.21149,0.23569 1.69043,0.48767 -0.22271,2.0932 -0.44543,4.1864 -0.98755,6.79978 -0.2799,1.07525 -0.24047,1.63031 -0.20104,2.18536 -0.0285,0.51373 -0.057,1.02744 -0.35169,2.02386 -0.33527,0.69181 -0.35724,0.90574 -0.33203,1.12452 0,0 -0.04,-0.0592 -0.25574,0.19323 -0.41931,1.70139 -0.6228,3.15033 -0.82635,4.59928 -2.37,9.98663 -3.75995,20.34018 -7.33057,29.87729 -5.93951,15.86462 -12.66772,31.51248 -20.27783,46.6409 -3.96253,7.87735 -1.56104,17.6452 6.49719,22.31875 7.56854,4.38953 17.9646,2.00458 22.3175,-5.71148 15.04517,-26.6699 27.29908,-54.47031 32.87104,-84.82642 1.2315,-6.70923 2.27057,-13.45377 3.65838,-20.8833 0.23639,-0.95044 0.21271,-1.19965 0.18903,-1.44882 0.27112,-4.6811 0.54224,-9.36216 1.08673,-14.60678 0.16443,-1.1355 0.0554,-1.70746 -0.0537,-2.27939 -0.029,-2.0409 -0.0579,-4.08179 0.17047,-6.76633 0.10529,-1.50885 -0.0468,-2.37408 -0.19885,-3.23932 -1.63922,-13.76907 -3.27844,-27.53815 -4.89227,-42.10248 -0.3451,-2.16034 -0.7157,-3.52542 -1.08631,-4.89047 0,0 -0.2127,-0.17807 -0.18347,-0.57565 -0.14758,-0.72711 -0.32428,-1.05664 -0.50098,-1.3862 -0.22381,-0.83948 -0.44763,-1.67896 -0.67492,-2.84683 z"
   id="path15" />
<path
   fill="#1f356b"
   opacity="1"
   stroke="none"
   d="m 835.11645,396.60968 c -0.64532,0.12256 -1.1242,-0.12943 -1.84594,-0.49963 -0.25214,-11.11249 -0.24549,-22.10685 -0.28644,-33.10102 -0.007,-1.82254 0.0617,-3.71707 -0.38501,-5.45483 -3.39276,-13.19953 -6.23523,-26.5925 -10.55243,-39.48892 -5.20306,-15.54261 -13.21912,-29.9592 -24.59332,-41.79978 -10.40784,-10.83471 -21.53278,-21.20785 -33.50336,-30.24591 -10.53656,-7.95535 -22.43103,-14.16861 -35.71039,-17.19424 -9.93231,-2.26303 -19.58703,-5.74303 -29.51812,-8.01267 -15.01429,-3.4313 -30.09626,-3.32684 -45.30073,-0.33037 -7.17932,1.41491 -14.68713,1.16302 -22.33465,1.36248 18.58575,-6.0712 37.95972,-7.57799 57.43433,-5.57779 51.80078,5.32037 92.52801,29.80179 121.84594,72.74414 17.47693,25.59857 25.49018,54.33591 25.56415,85.276 0.0175,7.31546 -0.41962,14.63199 -0.81403,22.32254 z"
   id="path16" />
<path
   fill="#1f356b"
   opacity="1"
   stroke="none"
   d="m 352.46704,482.00073 c -1.62051,0.33197 -3.70203,0.94901 -5.7843,0.95166 -43.25803,0.0549 -86.51621,0.0402 -130.24497,0.0491 -18.38096,-34.7488 -30.69847,-70.93136 -29.28547,-110.7503 1.29437,-36.47623 12.97456,-69.02508 36.4167,-97.14691 0.38953,0.78174 0.43808,1.32727 0.48663,1.87277 -4.71711,7.37717 -9.63115,14.63709 -14.10791,22.15732 -7.88009,13.2373 -12.51942,27.79883 -16.56988,42.54715 -0.7396,2.69302 -0.95288,5.56708 -1.1193,8.37478 -0.80323,13.55216 -2.36294,27.13498 -1.97102,40.65812 0.30367,10.47854 1.83467,21.29062 5.04424,31.23669 6.11706,18.95612 13.7875,37.41303 20.89912,56.04434 1.33255,3.491 4.34824,4.05252 7.79535,4.04373 28.49527,-0.0727 56.9908,-0.0408 85.48625,-0.0404 14.16443,1.8e-4 28.32883,6.1e-4 42.95456,0.002 z"
   id="path17" />
<path
   fill="#223b72"
   opacity="1"
   stroke="none"
   d="m 521.82629,777.90356 c 0.0846,0.28327 -0.10638,0.32288 -0.20538,0.44013 -6.41766,7.60077 -7.84808,7.84027 -15.43164,2.31103 -38.43185,-28.02081 -77.02972,-55.82653 -113.10727,-86.91119 -2.64459,-2.27869 -5.25751,-4.59412 -8.0022,-7.49597 -0.0976,-0.81165 -0.0781,-1.01978 -0.0586,-1.22797 3.87939,2.73297 7.92224,5.26288 11.61044,8.23322 18.05692,14.54205 35.85813,29.40649 54.08252,43.73364 9.22629,7.25317 19.25357,13.47809 28.74207,20.40967 9.89813,7.23108 19.68924,14.61957 29.30356,22.22198 3.23861,2.56092 5.58624,2.91053 8.52233,-0.19476 0.96576,-1.02142 2.84833,-1.17615 4.54419,-1.51978 z"
   id="path18" />
<path
   fill="#20366c"
   opacity="1"
   stroke="none"
   d="m 601.54224,760.82959 c 3.67883,-9.22333 2.3789,-16.04926 -4.02155,-21.11639 -6.65662,-5.27008 -14.30341,-5.37378 -22.05261,0.1781 -15.00189,10.74798 -29.85608,21.70202 -44.80243,32.52783 -1.85999,1.34717 -3.90808,2.43463 -6.21521,3.74615 0.43274,-1.07477 0.96021,-2.59521 2.02832,-3.38061 16.16296,-11.88513 32.29913,-23.81116 48.64777,-35.43781 11.36163,-8.08001 19.49707,-4.22693 27.6734,3.37586 4.89068,4.54767 5.01989,15.14343 0.14416,20.16003 -0.93378,0.0181 -1.16778,-0.0176 -1.40185,-0.0532 z"
   id="path19" />
<path
   fill="#1f3469"
   opacity="1"
   stroke="none"
   d="m 747.66125,482.75473 c -0.92761,0.69446 -2.19049,1.14645 -3.5625,1.9335 -3.14105,0.37552 -6.17315,0.41596 -9.78015,0.0248 -4.91742,-1.96213 -9.2016,-2.40936 -13.31836,0.25427 -1.07171,0.0561 -2.14349,0.11213 -3.79907,-0.19988 -1.12964,-0.69599 -1.67212,-1.30207 -2.22168,-1.30866 -5.3446,-0.0638 -10.69824,-0.1983 -16.03271,0.0476 -2.99829,0.13821 -5.9654,0.95205 -8.94654,1.46155 -2.0476,0.0562 -4.09527,0.11233 -6.87866,-0.14567 -3.33362,-0.80169 -5.9367,-1.73266 -8.5285,-1.70208 -13.11072,0.15466 -26.21942,0.52746 -39.32623,0.91394 -1.76239,0.052 -3.50977,0.61468 -5.2641,0.94085 -0.75519,0.0573 -1.51044,0.11469 -2.80738,-0.0872 -1.09307,-0.13409 -1.64441,-0.009 -2.19574,0.11619 -0.16424,0.0591 -0.32855,0.11825 -0.95031,-0.0966 -0.80274,-0.43268 -1.14801,-0.59146 -1.49323,-0.75022 -0.44653,-1.17096 -0.89313,-2.34188 -1.07031,-3.74527 1.35211,0.37226 2.43487,0.97696 3.51758,1.58164 38.80163,0.002 77.60327,-0.004 116.4049,0.0271 1.97266,0.002 3.94513,0.32052 6.25299,0.73416 z"
   id="path20" />
<path
   fill="#1d336a"
   opacity="1"
   stroke="none"
   d="m 297.82257,223.46747 c 5.79059,-1.59311 11.58115,-3.18622 17.77649,-4.72565 -0.56265,1.13388 -1.33124,2.79443 -2.52823,3.20458 -12.05435,4.13026 -24.17892,8.05552 -36.68069,12.04338 -0.39698,0.005 -0.44043,-0.0405 -0.43329,-0.39151 0.002,-0.58496 -0.003,-0.81894 -0.007,-1.05294 6.75046,-2.9223 13.50089,-5.8446 20.75754,-8.65062 0.87955,0.1772 1.0827,-0.004 1.11566,-0.42724 z"
   id="path21" />
<path
   fill="#1d336a"
   opacity="1"
   stroke="none"
   d="m 242.99972,255.08697 c 7.54668,-5.96154 15.172,-11.61996 23.12717,-17.32986 0.0935,1.0726 0.25083,2.71346 -0.44064,3.24039 -6.53919,4.98321 -13.19754,9.81254 -19.91007,14.56108 -0.57284,0.40526 -1.78346,-0.091 -2.77646,-0.47161 z"
   id="path22" />
<path
   fill="#1d3268"
   opacity="1"
   stroke="none"
   d="m 586.82532,482.66278 c -0.89154,2.12006 -1.79499,3.88422 -2.74573,5.99176 -0.8277,0.95148 -1.60797,1.55957 -2.64069,1.96341 0.79547,-4.255 1.84333,-8.30576 2.89118,-12.35651 0.32892,-0.0422 0.65784,-0.0844 0.98675,-0.12667 0.49891,1.39068 0.99781,2.78137 1.50849,4.52801 z"
   id="path23" />
<path
   fill="#1d336a"
   opacity="1"
   stroke="none"
   d="m 231.81772,265.84048 c 1.85257,-2.38989 4.10886,-4.75064 6.68664,-7.25207 0.38562,4.34936 -1.97378,6.6828 -6.68664,7.25207 z"
   id="path24" />
<path
   fill="#1d336a"
   opacity="1"
   stroke="none"
   d="m 224.35005,276.79962 c -0.34297,-0.36807 -0.39152,-0.9136 -0.48155,-1.86804 1.30453,-2.116 2.65057,-3.82306 4.28337,-5.70099 -0.97795,2.34995 -2.24268,4.87079 -3.80182,7.56903 z"
   id="path25" />
<path
   fill="#20376d"
   opacity="1"
   stroke="none"
   d="m 873.99792,364.5712 c -0.65411,-1.94181 -1.30786,-4.31244 -1.94555,-7.10733 0.65936,1.94333 1.30261,4.31094 1.94555,7.10733 z"
   id="path26" />
<path
   fill="#1c3165"
   opacity="1"
   stroke="none"
   d="m 510.86676,576.68164 c -0.39804,0.6261 -0.94223,0.93518 -1.8038,1.28467 -0.92789,-1.40119 -1.53836,-2.84271 -1.72138,-4.62988 1.1687,-0.34656 1.90988,-0.3476 2.6511,-0.34864 0.24264,1.12561 0.48529,2.25122 0.87408,3.69385 z"
   id="path27" />
<path
   fill="#20366c"
   opacity="1"
   stroke="none"
   d="m 546.47168,225.35492 c -0.90656,1.26579 -2.22168,2.4418 -3.85266,3.70581 -2.05805,-4.10657 1.06885,-3.58723 3.85266,-3.70581 z"
   id="path28" />
<path
   fill="#20366c"
   opacity="1"
   stroke="none"
   d="m 560.61475,213.18765 c 0.37109,0.17461 0.4115,0.49593 0.50317,1.30033 -0.9856,1.27775 -2.02246,2.07243 -3.33838,2.93125 0.64887,-1.31886 1.57672,-2.70185 2.83521,-4.23158 z"
   id="path29" />
<path
   fill="#1f3469"
   opacity="1"
   stroke="none"
   d="m 509.99457,572.58929 c -0.74311,0.39954 -1.48429,0.40058 -2.59619,0.40644 -0.47592,-0.42908 -0.58118,-0.86298 -0.63816,-1.63031 0.90421,-0.96064 1.76017,-1.58777 2.92734,-2.29016 0.31046,0.98834 0.30969,2.05194 0.30701,3.51403 z"
   id="path30" />
<path
   fill="#1e3469"
   opacity="1"
   stroke="none"
   d="m 624.86243,481.68893 c -0.94178,-0.30017 -2.02454,-0.90487 -3.39002,-1.60012 -0.39789,-0.22657 -0.51288,-0.36261 -0.62231,-0.76578 0.28741,-0.48224 0.56921,-0.69736 1.02002,-1.1193 1.06311,0.92234 1.95727,2.05152 2.99231,3.4852 z"
   id="path31" />
<path
   fill="#20366c"
   opacity="1"
   stroke="none"
   d="m 551.0556,221.76089 c -0.53717,0.94211 -1.43792,1.70559 -2.62603,2.55954 0.56256,-0.8524 1.41247,-1.79528 2.62603,-2.55954 z"
   id="path32" />
<path
   fill="#1f356b"
   opacity="1"
   stroke="none"
   d="m 829.66296,414.09192 c 0.11725,0.75964 -0.0569,1.59299 -0.44885,2.66675 -0.0927,-0.70407 0.0323,-1.64853 0.44885,-2.66675 z"
   id="path33" />
<path
   fill="#20376d"
   opacity="1"
   stroke="none"
   d="m 869.98096,333.66235 c -0.62293,-0.43045 -1.26239,-1.19445 -1.89929,-2.29138 0.62933,0.4307 1.25604,1.19428 1.89929,2.29138 z"
   id="path34" />
<path
   fill="#1d336a"
   opacity="1"
   stroke="none"
   d="m 272.99924,234.41354 c -0.12262,-0.53338 -3e-5,-0.65553 0.76117,-0.58893 1.09018,0.10184 1.63974,0.11324 2.1893,0.12464 0,0 0.0435,0.0454 0.0649,0.069 -0.94178,0.2518 -1.90491,0.48001 -3.01535,0.39526 z"
   id="path35" />
<path
   fill="#20366c"
   opacity="1"
   stroke="none"
   d="m 554.43188,219.31869 c -0.37103,0.72742 -1.16149,1.38804 -2.2434,2.15685 0.41369,-0.66907 1.11883,-1.44635 2.2434,-2.15685 z"
   id="path36" />
<path
   fill="#1f356b"
   opacity="1"
   stroke="none"
   d="m 831.71338,402.06262 c 0.0709,0.47937 -0.11517,1.00974 -0.50611,1.73935 -0.0536,-0.42996 0.0977,-1.05914 0.50611,-1.73935 z"
   id="path37" />
<path
   fill="#20366c"
   opacity="1"
   stroke="none"
   d="m 557.2179,217.46448 c 0.1961,0.0811 0.004,0.45106 -0.20069,0.49063 -0.40936,-0.13339 -0.61413,-0.30635 -0.81885,-0.47931 0.27448,-0.0308 0.54895,-0.0616 1.01954,-0.0113 z"
   id="path38" />
<path
   fill="#1f356b"
   opacity="1"
   stroke="none"
   d="m 601.35815,760.94653 c 0.41816,-0.0814 0.65216,-0.0457 1.23554,0.0482 -0.16394,0.32062 -0.67725,0.58301 -1.48828,0.85113 -0.21912,-0.27722 -0.0969,-0.53991 0.25274,-0.89929 z"
   id="path39" />
<path
   fill="#1f356b"
   opacity="1"
   stroke="none"
   d="m 317.25635,672.97827 c -0.25959,-0.0154 -0.25492,-0.51446 -0.24955,-0.76392 0.33353,-0.097 0.66166,0.0554 1.00943,0.49708 -0.15368,0.28698 -0.32702,0.28466 -0.75988,0.26684 z"
   id="path40" />
<path
   fill="#1d3268"
   opacity="1"
   stroke="none"
   d="m 384.7049,685.04968 c 0.29681,0.1781 0.27734,0.38623 0.22778,0.90662 -0.34445,0.13013 -0.65891,-0.052 -1.07053,-0.49426 0.11066,-0.30091 0.31855,-0.34156 0.84275,-0.41236 z"
   id="path41" />
<path
   fill="#1f356b"
   opacity="1"
   stroke="none"
   d="m 627.24829,223.82892 c -0.1828,0.1281 -0.22314,-0.30414 -0.23608,-0.5208 0.15057,-0.27093 0.31402,-0.3252 0.7323,-0.33723 0.10528,0.30438 -0.0841,0.53361 -0.49622,0.85803 z"
   id="path42" />
<path
   fill="#1f356b"
   opacity="1"
   stroke="none"
   d="m 628.92615,222.74795 c -0.0312,-0.24716 0.20184,-0.61311 0.76513,-0.94705 0.0532,0.29744 -0.22387,0.56287 -0.76513,0.94705 z"
   id="path43" />
<path
   fill="#1f356b"
   opacity="1"
   stroke="none"
   d="m 600.17908,762.84216 c -0.0746,-0.17645 0.0431,-0.51935 0.432,-0.95044 0.1009,0.20246 -0.0694,0.49317 -0.432,0.95044 z"
   id="path44" />
<path
   fill="#20366b"
   opacity="1"
   stroke="none"
   d="m 679.08533,752.99463 c -23.03192,-26.63233 -28.99237,-56.5636 -16.92163,-89.73511 8.59533,-23.62054 21.92254,-44.82342 35.01892,-66.07233 15.19494,-24.65387 30.85394,-49.02166 46.3208,-73.50781 0.60498,-0.9577 1.30627,-1.85461 2.35632,-3.33478 3.19251,4.93268 6.24628,9.41889 9.06757,14.04676 21.99945,36.08746 44.36261,71.96289 65.72516,108.42425 8.73938,14.91632 15.12268,31.1366 15.49334,49.0213 0.8418,40.62195 -26.37079,77.37751 -65.5672,88.29816 -3.17004,0.88324 -6.43817,1.414 -10.1123,1.71857 -0.46698,-0.86347 -0.48248,-1.33692 -0.20496,-2.04981 12.53308,-3.5202 24.93549,-6.44977 35.31348,-14.29767 3.13751,-2.37261 5.91803,-5.21374 8.8999,-7.79656 8.4848,-7.34961 15.95783,-15.48603 19.94745,-26.22364 1.65301,-4.44885 3.05035,-8.99615 4.45911,-13.53119 1.43945,-4.63372 3.82122,-9.28778 3.90722,-13.96753 0.21765,-11.83831 1.49598,-23.76587 -4.40496,-35.15277 -5.08295,-9.80853 -7.69642,-20.9389 -13.09052,-30.53552 -12.21698,-21.73523 -25.341,-42.96728 -38.35706,-64.24445 -8.84027,-14.45111 -18.09008,-28.65252 -27.22479,-42.92205 -3.4151,-5.33478 -4.35181,-5.32428 -7.82757,0.0957 -9.23353,14.39868 -18.45826,28.80402 -27.5434,43.29639 -5.55804,8.86596 -10.84351,17.90264 -16.26721,26.85296 -5.66889,9.35498 -11.77082,18.47705 -16.92163,28.10834 -5.31055,9.93005 -9.73084,20.33807 -14.49134,30.55994 -9.53735,20.47876 -10.63714,41.58386 -2.36834,62.44567 4.23516,10.68506 11.03534,20.35352 16.36261,30.4917 -0.73212,0.0108 -1.15058,0.0111 -1.56897,0.0115 z"
   id="path45" />
<path
   fill="#223b72"
   opacity="1"
   stroke="none"
   d="m 679.09979,753.33386 c 0.40393,-0.3396 0.82239,-0.33996 1.89484,-0.27881 8.24628,5.51831 15.68805,11.20124 23.46814,16.37543 10.10083,6.71765 21.46027,9.87494 33.47089,10.86115 -0.66755,0.99804 -1.27851,1.71429 -1.88947,2.43054 -20.03455,-1.79175 -36.84534,-10.52063 -51.47522,-23.93341 -1.83728,-1.68445 -3.63739,-3.40943 -5.46918,-5.4549 z"
   id="path46" />
<path
   fill="#20366b"
   opacity="1"
   stroke="none"
   d="m 736.43909,782.86212 c 0.21606,-0.8562 0.82702,-1.57245 1.96399,-2.57379 6.55529,-0.27826 12.58465,-0.27148 18.61138,0.0753 -0.009,1.01996 -0.0151,1.69989 -0.0214,2.37988 -6.71972,0.0862 -13.43939,0.17236 -20.55401,0.11859 z"
   id="path47" />
<path
   fill="#1e3469"
   opacity="1"
   stroke="none"
   d="m 630.4646,485.05902 c 1.29248,-0.41028 3.03986,-0.97296 4.80225,-1.02496 13.10681,-0.38648 26.21551,-0.75928 39.32623,-0.91394 2.5918,-0.0306 5.19488,0.90039 8.09674,1.61721 -17.05188,0.28812 -34.40759,0.34696 -52.22522,0.32169 z"
   id="path48" />
<path
   fill="#1e3469"
   opacity="1"
   stroke="none"
   d="m 690.46228,485.05173 c 2.5191,-0.59336 5.48621,-1.4072 8.4845,-1.54541 5.33447,-0.24588 10.68811,-0.11139 16.03271,-0.0476 0.54956,0.007 1.09204,0.61267 1.8266,1.22345 -8.5014,0.33972 -17.19153,0.39654 -26.34381,0.36954 z"
   id="path49" />
<path
   fill="#1e3469"
   opacity="1"
   stroke="none"
   d="m 721.45691,485.0517 c 3.66009,-2.74805 7.94427,-2.30082 12.41479,-0.42533 -3.90075,0.39988 -7.92944,0.45478 -12.41479,0.42533 z"
   id="path50" />
<path
   fill="#223b72"
   opacity="1"
   stroke="none"
   d="m 757.31232,782.81433 c -0.31293,-0.75079 -0.3067,-1.43072 0.0711,-2.45465 1.10932,-0.33478 1.84711,-0.32556 2.5849,-0.31635 0.0155,0.47339 0.031,0.94684 0.0662,1.77503 -0.78785,0.5921 -1.59546,0.82947 -2.72223,0.99597 z"
   id="path51" />
<path
   fill="#4d5f8b"
   opacity="1"
   stroke="none"
   d="m 870.79443,373.2157 c 0.28272,0.63489 0.43482,1.50012 0.39283,2.57568 -0.3039,-0.64154 -0.41376,-1.49347 -0.39283,-2.57568 z"
   id="path52" />
<path
   fill="#4d5f8b"
   opacity="1"
   stroke="none"
   d="m 361.76123,215.98904 c -0.65741,0.22086 -1.52768,0.28617 -2.59018,0.13843 0.66428,-0.24002 1.52081,-0.267 2.59018,-0.13843 z"
   id="path53" />
<path
   fill="#1f356b"
   opacity="1"
   stroke="none"
   d="m 832.28625,413.68054 c -0.087,-1.21924 0.11646,-2.66818 0.56836,-4.38412 0.0729,1.20678 -0.10241,2.6806 -0.56836,4.38412 z"
   id="path54" />
<path
   fill="#20376d"
   opacity="1"
   stroke="none"
   d="m 864.91663,326.35431 c 0.40051,1.00314 0.77111,2.36822 1.14038,4.10477 -0.39099,-0.99997 -0.78064,-2.3714 -1.14038,-4.10477 z"
   id="path55" />
<path
   fill="#4d5f8b"
   opacity="1"
   stroke="none"
   d="m 870.80597,383.16034 c 0.25653,0.40259 0.3656,0.97455 0.28979,1.7037 -0.26898,-0.40664 -0.35315,-0.97052 -0.28979,-1.7037 z"
   id="path56" />
<path
   fill="#1f356b"
   opacity="1"
   stroke="none"
   d="m 275.95685,233.59827 c -0.5567,0.33958 -1.10626,0.32818 -2.0683,0.28222 0.17288,-0.43576 0.75818,-0.83696 1.70215,-1.28665 0.36352,0.18549 0.36841,0.41947 0.36615,1.00443 z"
   id="path57" />
<path
   fill="#1e3469"
   opacity="1"
   stroke="none"
   d="m 625.33093,485.07336 c 0.22003,-0.19464 0.77137,-0.31976 1.49353,-0.27282 -0.2735,0.22882 -0.71789,0.28558 -1.49353,0.27282 z"
   id="path58" />
<path
   fill="#1f356b"
   opacity="1"
   stroke="none"
   d="m 833.9154,405.66217 c -0.19335,-0.24786 -0.23278,-0.80292 -0.0935,-1.51013 0.2016,0.29956 0.22449,0.75122 0.0935,1.51013 z"
   id="path59" />
<path
   fill="#1f356b"
   opacity="1"
   stroke="none"
   d="m 297.57523,223.45535 c 0.21438,0.43538 0.0112,0.61656 -0.48404,0.44257 -0.12192,-0.11308 0.23669,-0.4547 0.48404,-0.44257 z"
   id="path60" />
<path
   fill="#1e3469"
   opacity="1"
   stroke="none"
   d="m 622.72137,484.42374 c 0.17994,-0.10791 0.52521,0.0509 1.07715,0.40811 -0.16614,0.0852 -0.539,-0.0281 -1.07715,-0.40811 z"
   id="path61" />
<path
   fill="#1f356b"
   opacity="1"
   stroke="none"
   d="m 833.22058,408.99524 c -0.16803,-0.0963 -0.14606,-0.31021 -0.01,-0.66653 0.28063,0.0603 0.30908,0.2907 0.01,0.66653 z"
   id="path62" />
<path
   fill="#4d5f8b"
   opacity="1"
   stroke="none"
   d="m 869.77356,400.02295 c 0.17053,0.10339 0.19421,0.3526 0.0936,0.95685 -0.19678,0.10061 -0.29071,-0.15033 -0.33234,-0.4097 -0.0201,-0.12564 0.0581,-0.26706 0.23871,-0.54715 z"
   id="path63" />
<path
   fill="#20376d"
   opacity="1"
   stroke="none"
   d="m 864.24316,324.32635 c 0.19562,0.0338 0.37232,0.36329 0.59626,0.97461 -0.17359,-0.0384 -0.39441,-0.35861 -0.59626,-0.97461 z"
   id="path64" />
<path
   fill="#203465"
   opacity="1"
   stroke="none"
   d="m 760.26135,779.80389 c -1.03082,0.23023 -1.76861,0.22101 -2.87536,0.21576 -6.39826,-0.003 -12.42762,-0.01 -18.92639,-0.0131 -12.53656,-0.70111 -23.896,-3.8584 -33.99683,-10.57605 -7.78009,-5.17419 -15.22186,-10.85712 -23.15442,-16.38574 -5.98132,-10.19977 -12.7815,-19.86823 -17.01666,-30.55329 -8.2688,-20.86181 -7.16901,-41.96691 2.36834,-62.44567 4.7605,-10.22187 9.18079,-20.62989 14.49134,-30.55994 5.15081,-9.63129 11.25274,-18.75336 16.92163,-28.10834 5.4237,-8.95032 10.70917,-17.987 16.26721,-26.85296 9.08514,-14.49237 18.30987,-28.89771 27.5434,-43.29639 3.47576,-5.41998 4.41247,-5.43048 7.82757,-0.0957 9.13471,14.26953 18.38452,28.47094 27.22479,42.92205 13.01606,21.27717 26.14008,42.50922 38.35706,64.24445 5.3941,9.59662 8.00757,20.72699 13.09052,30.53552 5.90094,11.3869 4.62261,23.31446 4.40496,35.15277 -0.086,4.67975 -2.46777,9.33381 -3.90722,13.96753 -1.40876,4.53504 -2.8061,9.08234 -4.45911,13.53119 -3.98962,10.73761 -11.46265,18.87403 -19.94745,26.22364 -2.98187,2.58282 -5.76239,5.42395 -8.8999,7.79656 -10.37799,7.8479 -22.7804,10.77747 -35.31348,14.29773 z"
   id="path65" />
</svg>
